<?xml version="1.0" encoding="UTF-8"?><svg id="Capa_1" xmlns="http://www.w3.org/2000/svg" width="190.16043" height="248.61062" viewBox="0 0 190.16043 248.61062"><path d="m65.07604,190.24887c-.26311-2.35556-.17149-4.71628-.07446-7.07695-.00017.00011-.0011.05941-.0011.05941.02611-1.10472.71422-1.57968,1.40647-2.05778,2.17149-1.49972,4.47401-2.7459,6.49862-4.52954,6.61825-5.8305,10.1655-13.59338,10.47945-23.33327.08235-2.55493-.02575-5.11777.02664-7.67491.02334-1.13923-.19633-1.61204-1.29147-1.66788-3.35213-.17093-5.56974-2.88337-5.6962-6.85375-.07029-2.20681-.03867-4.41918-.0153-6.62849.00866-.8194-.16185-1.38524-.805-1.86696-3.39127-2.53993-6.44438-5.58304-9.1508-9.0687-.89839-1.15704-1.84258-1.51973-3.11227-1.48109-6.44567.19617-12.84565-.19972-19.10986-2.22941-15.13825-4.90505-26.80673-15.25001-34.96618-31.00086C3.65018,74.00078,1.03819,62.1428,1.01791,49.47742c-.01193-7.44403-.00318-14.88811-.00089-22.33216.00114-3.70817,1.89058-5.97274,5.06945-5.98082,10.13611-.02573,20.27244-.05628,30.40824.01041,1.40675.00925,1.86629-.51803,1.68108-2.06198-.04106-.34222-.04569-.70389-.00105-1.04464.20574-1.57061-.25773-2.29313-1.6704-2.73151-2.90726-.90217-4.39371-3.8734-4.07978-7.49961.25697-2.96829,2.57806-5.50843,5.34221-5.8168.53961-.0602,1.08692-.03245,1.63067-.03265,33.72198-.01233,67.44396-.02452,101.16594-.03285,3.70829-.00092,7.41692-.01044,11.12478.04236,2.86462.04079,5.12915,2.10657,5.81402,5.1883.64241,2.89065-.52634,6.1268-2.77012,7.62125-.34054.22682-.74232.3268-1.08194.55509-.5669.38105-1.61442-.06228-1.72111.98733-.14514,1.42781-.12027,2.90834.03137,4.33695.07606.71659.83432.41313,1.2859.41664,4.00477.03106,8.00973.03201,12.01462.03503,6.08184.00459,12.16374-.01587,18.24549.01232,3.81945.0177,5.50339,2.04834,5.49794,6.54201-.01011,8.31595.19637,16.64219-.08041,24.94601-1.07655,32.29756-21.31262,59.15203-48.37687,64.52305-4.76183.945-9.54654.96102-14.34041.91469-1.02768-.00994-1.74021.3562-2.43797,1.24571-2.75812,3.51608-5.811,6.6495-9.24668,9.22656-.73207.5491-.94694,1.17541-.92114,2.14171.05428,2.03345.04478,4.07108.00832,6.10568-.07651,4.27096-2.22631,6.90464-5.86193,7.2361-.5139.04685-1.14277-.16385-1.12926.87567.0716,5.5064-.35835,11.04388,1.12602,16.43407,2.00654,7.28634,5.76423,12.89163,11.35047,16.80248,1.48568,1.04009,2.99895,2.02668,4.51218,3.01096.82561.53703,1.49165,1.24345,1.52141,2.39791.0537,2.08353.22027,4.17454-.0753,6.25296-.53123.27071-1.045.51812-1.66317.51045-1.82441-.02256-3.64958.06974-5.47448.07044-17.02477.00654-34.04954.00464-51.07431-.00311-.58825-.00026-1.17649-.08774-1.76473-.13458Zm66.83526-83.11706c3.73862-.19295,7.10445-.59909,10.41712-1.57279,11.68268-3.43394,21.07536-10.8931,28.1578-22.31571,4.49809-7.25454,7.3278-15.35817,8.5279-24.24966,1.14803-8.50579.38834-17.0657.62482-25.59641.02802-1.01011-.33776-1.29535-1.14229-1.29582-8.65199-.00515-17.30405-.02077-25.95582-.08732-.98321-.00757-1.29329.4413-1.35253,1.49541-.4015,7.14221-1.28474,14.21022-2.41486,21.2388-2.04582,12.72384-5.16209,25.05728-9.7116,36.86881-2.0186,5.24072-4.31328,10.30843-7.15056,15.51469Zm-74.14372-.20164c-.06808-.7846-.43278-1.27586-.71401-1.8049-2.65004-4.9851-4.90197-10.21557-6.88479-15.60442-3.10673-8.44342-5.51613-17.16162-7.34074-26.10747-1.95158-9.56832-3.3133-19.25049-3.90521-29.06365-.1074-1.78069-.49675-2.36279-2.03713-2.3445-8.35536.09927-16.71185.11413-25.06762.07127-1.24637-.0064-1.47371.53109-1.46165,1.82752.04867,5.23407.05405,10.46948.01295,15.70372-.05496,6.99908.86644,13.82141,3.09557,20.29011,7.08807,20.56878,19.9851,32.80612,38.58418,36.63411,1.85947.38271,3.77139.68093,5.71845.39822Z" style="fill:#e7a515; stroke-width:0px;"/><path d="m65.07604,190.24887c.58824.04684,1.17648.13432,1.76473.13458,17.02477.00775,34.04954.00965,51.07431.00311,1.8249-.0007,3.65007-.093,5.47448-.07044.61817.00767,1.13194-.23974,1.66317-.51045.18498.82464.76911.58818,1.22213.5948,1.63121.0239,3.26289.00236,4.89438.00251,2.61724.00019,3.27357.75643,3.27399,3.78821.00179,13.54877.02251,27.09768-.02816,40.64619-.0058,1.54665.26548,2.21425,1.6744,1.99151.92263-.14587,1.87709-.06693,2.81455-.01736,1.64865.08714,2.44338,1.02599,2.47974,2.93875.03206,1.68548.03213,3.37318-.00065,5.05865-.03854,1.98193-.88268,2.9307-2.61472,2.93763-3.65843.01461-7.31697-.00383-10.97546-.00396-25.36248-.00102-50.72495-.00075-76.08743-.00121-2.36751-.00004-3.07098-.82954-3.07458-3.62526-.0018-1.39558-.01509-2.79146.00386-4.1867.0284-2.09169.84211-3.05201,2.64638-3.11189.98801-.0328,1.9871-.10836,2.96373.01966,1.16197.15236,1.36615-.39164,1.36132-1.64744-.04177-10.8737-.0241-21.74772-.02396-32.62164.00005-2.84931-.00471-5.69865.00252-8.54794.0071-2.80043.70042-3.56361,3.12976-3.61752,2.12049-.04705,4.24652.19637,6.3615-.15379Zm29.9262,35.67011c-.00002-.02349-.00003-.04697-.00004-.07046,8.25322,0,16.50643.00341,24.75964-.00219,2.31774-.00158,3.04371-.83175,3.04676-3.48529.00668-5.81267.00673-11.62534-.00156-17.43801-.00368-2.58391-.84458-3.57741-3.03794-3.58055-16.50583-.02345-33.01165-.0422-49.51747-.05557-2.3177-.00187-3.09279.92724-3.09647,3.69666-.00756,5.69643-.00609,11.39286.00005,17.0893.00326,3.02568.68386,3.84069,3.23617,3.84316,8.20361.00792,16.40723.00296,24.61085.00296Z" style="fill:#353b47; stroke-width:0px;"/><polygon points="65.00048 183.23132 65.00158 183.17192 64.88777 183.19724 65.00048 183.23132" style="fill:#353b47; stroke-width:0px;"/><path d="m95.00225,225.91898c-8.20362,0-16.40724.00496-24.61085-.00296-2.55231-.00247-3.23291-.81748-3.23617-3.84316-.00614-5.69643-.00762-11.39286-.00005-17.0893.00368-2.76941.77877-3.69853,3.09647-3.69666,16.50583.01338,33.01165.03212,49.51747.05557,2.19336.00313,3.03426.99664,3.03794,3.58055.00829,5.81267.00824,11.62534.00156,17.43801-.00305,2.65354-.72902,3.48371-3.04676,3.48529-8.25322.0056-16.50643.00219-24.75964.00219,0,.02349.00002.04697.00004.07046Z" style="fill:#e7a515; stroke-width:0px;"/></svg>