<?xml version="1.0" encoding="UTF-8"?><svg id="Capa_1" xmlns="http://www.w3.org/2000/svg" width="206.76923" height="207.83018" viewBox="0 0 206.76923 207.83018"><rect x="87.94527" y="102.82848" width="11.71541" height="7.86846" rx="3.83231" ry="3.83231" style="fill:#fff; stroke-width:0px;"/><path d="m97.09383,104.83266h-6.58176c-.09052,0-.16391-.07331-.16391-.16391s.07339-.16391.16391-.16391h6.58176c.09052,0,.16391.07331.16391.16391s-.07339.16391-.16391.16391Z" style="stroke-width:0px;"/><path d="m97.09383,106.22863h-6.58176c-.09052,0-.16391-.07331-.16391-.16391s.07339-.16391.16391-.16391h6.58176c.09052,0,.16391.07331.16391.16391s-.07339.16391-.16391.16391Z" style="stroke-width:0px;"/><path d="m97.09383,107.6246h-6.58176c-.09052,0-.16391-.07331-.16391-.16391s.07339-.16391.16391-.16391h6.58176c.09052,0,.16391.07331.16391.16391s-.07339.16391-.16391.16391Z" style="stroke-width:0px;"/><path d="m97.09383,109.02057h-6.58176c-.09052,0-.16391-.07331-.16391-.16391s.07339-.16391.16391-.16391h6.58176c.09052,0,.16391.07331.16391.16391s-.07339.16391-.16391.16391Z" style="stroke-width:0px;"/><polygon points="102.91993 4.08496 130.0867 77.50205 203.50379 104.66882 130.0867 131.83559 102.91993 205.25268 75.75316 131.83559 2.33607 104.66882 75.75316 77.50205 102.91993 4.08496" style="fill:#fff; stroke-width:0px;"/><path d="m75.35828,131.68682l-2.68127-1.0103c-.35991-.13559-.59826-.47996-.59876-.86443l-.06416-50.28127c-.0005-.38748.24061-.7341.60403-.86869.91205-.33735,1.82411-.67496,2.73616-1.01256l.54638-.54638c4.99136-13.48857,9.98247-26.97715,14.97383-40.46572.53184-1.43763,1.06394-2.87501,1.59578-4.31264.0396,48.33611.07895,96.67246.11855,145.00857-5.74351-15.21544-11.48702-30.43113-17.23053-45.64656Z" style="fill:#0393de; stroke-width:0px;"/><path d="m133.60417,130.53391c-1.17246.43385-2.34492.86794-3.51739,1.30179-5.58411,15.09037-11.16796,30.18099-16.75207,45.27136-.10978-48.58874-.21955-97.17749-.32933-145.76623,5.69388,15.38712,11.38752,30.77399,17.0814,46.16111,1.18449.43836,2.36924.87671,3.55373,1.31507-.01203,17.23905-.02431,34.47785-.03634,51.7169Z" style="fill:#0393de; stroke-width:0px;"/><path d="m174.4679,114.77209v-20.20354c-.20126-.28923-.40252-.57821-.60378-.86744-.58949-.21805-18.04158-6.67586-18.63282-6.89467-.00301-.001-1.31156-.48548-1.31457-.48648.02281.45139.04562.90303.06842,1.35442.00451,11.32837.00877,22.65674.01328,33.9851-.00226.44337-.00426.88699-.00652,1.33036.18747-.07193.65591-.25038,1.25241-.46317,9.52957-3.39833,13.35173-4.93848,18.61954-6.88715.36317-.13434.60403-.48046.60403-.86744Z" style="fill:#0393de; stroke-width:0px;"/><path d="m51.20702,122.75275c-1.83689-.65165-18.05862-6.41145-18.53282-6.85782-.20101-.18923-.29474-.41931-.29474-.41931-.10527-.2569-.08998-.48498-.07594-.59149-.07795-6.85782-.15589-13.7159-.23384-20.57372,0-.38698.24111-.7331.60403-.86744,5.24951-1.94316,9.0461-3.46701,18.53332-6.85807.56944-.20351,1.01682-.37394,1.19251-.44136l.05338,1.30906c.01479,11.92588.02957,23.85175.04436,35.77763l-1.29026-.47746Z" style="fill:#0393de; stroke-width:0px;"/><path d="m32.06893,109.87798v-10.41807c-.01504-1.92561-.02983-3.85098-.04486-5.77659.18296-.07895.36567-.15815.54864-.2371,1.7632.07344,3.52666.14662,5.28986.22006h130.81121l5.35879.05113c.13484.20577.26993.41129.40477.61706.01003,1.70857.02005,3.41688.03008,5.12545v10.41807c-.00301,1.76045-.00576,3.52115-.00877,5.28159-.19825.1599-.3965.32006-.59475.47996-1.73012.01053-3.45999.0213-5.19011.03183H37.86256c-1.8394.02882-3.67879.05739-5.51819.08622-.09173-1.95995-.18371-3.91965-.27545-5.8796Z" style="fill:#fff; stroke-width:0px;"/><path d="m173.54233,115.75342H32.99406c-.55524,0-1.00696-.45172-1.00696-1.007v-20.15497c0-.55528.45172-1.007,1.00696-1.007h140.54827c.55528,0,1.007.45172,1.007,1.007v20.15497c0,.55528-.45172,1.007-1.007,1.007Zm-140.54827-22.00506c-.46488,0-.84305.37825-.84305.84309v20.15497c0,.46484.37817.84309.84305.84309h140.54827c.46492,0,.84309-.37825.84309-.84309v-20.15497c0-.46484-.37817-.84309-.84309-.84309H32.99406Z" style="fill:#fff; stroke-width:0px;"/><path d="m114.60972,104.27135c0,2.01038-.04403,4.02214.01858,6.03056.03126,1.00265-.28418,1.74112-1.20073,2.09777-.8238.32058-1.4795-.10289-2.1098-.65358-1.08927-.95163-1.59179-2.27387-2.32711-3.45024-.73827-1.18106-1.49288-2.35188-2.23186-3.53249-.24673-.39423-.54603-.71744-1.03786-.50251-.33807.14772-.42337.52267-.42854.87422-.02057,1.3982-.02722,2.7966-.04246,4.19487-.00664.61134-.04037,1.22304-.0277,1.83384.01374.66186-.46525.86507-.93523,1.1136-.72004.38075-1.19653-.14718-1.56268-.53929-.47456-.50826-.54735-1.21575-.53888-1.95171.04134-3.58307.06127-7.16775-.00988-10.74993-.02025-1.01764.26602-1.76089,1.16675-2.09594.96379-.35851,1.95281-.20299,2.55449.73455,1.1749,1.83069,2.28016,3.70612,3.41112,5.56496.22712.37328.43692.75705.66089,1.13225.05437.09098.10299.15966.14933.21705.18556.22979.27799.38178.43859.50303.10989.08296.36227.27353.54995.19163.12475-.05443.16682-.20562.21284-.38088.15799-.60171.24272-.90236.2441-1.0281.02015-1.83531.02189-3.67098.01258-5.50645-.00465-.91575.28974-1.49933,1.32949-1.54015.59899-.02352,1.08112.05257,1.37728.35672.33332.34231.32648.84322.32485,1.05497-.00879,1.12551.00799,3.24886.00189,6.0313Z" style="stroke-width:0px;"/><path d="m87.99662,104.21609c-.00058-1.92655.05809-3.85558-.02291-5.7787-.04756-1.13019.37709-1.65004,1.47397-1.64587,2.97703.0113,5.95421.05896,8.93089.03572,1.03812-.00812,1.08953.63702,1.10904,1.36605.02275.85159-.36776,1.28761-1.25824,1.27631-4.70775-.05973-4.99119-.02115-4.99126-.02115-.81302-.08209-1.33761-.15071-1.65013.18444-.28935.31031-.26265.82264-.23454,1.36043.026.49812.03665.95015.32664,1.2689.28524.31352.7945.43599,1.66525.46031,1.31229.03665,2.62952.03835,3.93956-.03437.94761-.05257,1.52606.22054,1.61772,1.22923.10356,1.14014-.58602,1.60999-1.55373,1.65687-1.30966.06348-2.62708-.051-3.93918-.0155-1.81275.04904-2.07476.41018-2.06173,2.18782.00886,1.20487.4848,1.77167,1.71342,1.74702,1.66329-.03334,3.33342.07474,4.98972-.03797,1.13266-.07706,1.71974.44362,1.77,1.40238.05337,1.01735-.67091,1.56063-1.68569,1.56615-2.62667.01431-5.25487.04798-7.87984-.02314-1.74401-.04727-2.25018-.66077-2.25673-2.40506-.00719-1.92658-.0016-3.85323-.00225-5.77988Z" style="stroke-width:0px;"/><path d="m166.28094,104.24279c.08954.76462.08209,4.12295-2.42159,6.56389-.50829.49555-1.84208,1.75983-3.9386,2.03516-2.45365.32225-4.32728-.92342-4.9427-1.33257-1.08924-.72418-1.70662-1.52426-1.8476-1.71146-1.2636-1.6777-1.40854-3.45233-1.47831-4.33653-.13563-1.71859.23662-3.447,1.06668-5.14251,1.31938-2.69512,4.5028-3.8016,7.93051-3.21054,2.77009.47764,4.79013,2.45015,5.41129,5.3489.16332.76221.19307,1.55302.22032,1.78566Zm-3.12007.48997c-.03527-.57697-.04047-.92714-.08046-1.2733-.26169-2.2652-1.57821-3.72444-3.52656-3.92015-2.24626-.22565-3.76572.80137-4.52876,3.08601-.61356,1.83724-.44622,3.63121.49375,5.30728.2338.41689.63426,1.0169,1.38668,1.48123,1.05327.64995,2.14055.58403,2.56469.53467.43223-.03585,1.35539-.1786,2.16777-.87772.72717-.62578,1.043-1.35642,1.19778-1.97113.21124-.83895.24163-1.72344.3251-2.3669Z" style="stroke-width:0px;"/><path d="m54.08833,110.71062c-.12189.57598-.36586.97855-.55393,1.10015-.11367.07353-.23544.11537-.23556.11541-.10424.03553-.20822.05151-.31772.057-1.15734.05793-2.13092-.22722-2.43799-1.475-.502-2.03987-2.07547-2.02277-3.69656-2.1255-1.69497-.10742-3.16612.02359-3.79405,1.93961-.10706.32668-.29263.63939-.49456.92085-.51863.72296-1.82604,1.0059-2.55224.53467-.84296-.54709-.35238-1.16883-.09519-1.82337,1.4958-3.80651,3.01406-7.60598,4.40119-11.45235.49199-1.36418,1.41557-2.0237,2.68209-2.05804,1.31864-.03575,1.80806,1.00426,2.24299,2.16279.73403,1.95528,1.83361,4.98201,4.34298,10.93267.21868.51866.40232.93349.50855,1.17111Zm-7.38817-4.74902c1.78753-.00183,2.03028-.42835,1.34637-2.493-.28826-.87021-.43011-2.10701-1.56538-2.06677-.00006,0-.18672.01682-.36285.10549-.46375.23348-.64559,1.23164-.89707,2.51039-.22042,1.12079-.37806,1.94578,1.47892,1.94388Z" style="stroke-width:0px;"/><path d="m56.21341,104.91822c.04512-2.82876.08087-5.07152-.1172-6.51539-.02542-.18508-.10462-.72178.20148-1.1411.33813-.46314.96581-.57781,1.27846-.57068,2.61604.05973,5.24351.11152,7.83876.4081,1.58194.18075,2.60173,1.23135,2.90488,2.94635.28133,1.5916.0733,2.81287-1.31531,3.8895-2.00974,1.55819-1.91198,1.62106-.27427,3.5799.77794.93051,1.45587,1.95229,2.1082,2.9778.53743.84488.16188,1.32124-.77415,1.36341-1.07275.0483-2.03593-.03973-2.66925-1.1894-.62832-1.14053-1.45318-2.17964-2.25223-3.21667-.47145-.61182-.89347-1.28954-1.66384-1.62876-1.34201-.59103-2.26218-.13463-2.38394,1.32182-.07966.95278.01528,1.92078.04204,2.88171.02779.99993-.30694,1.72995-1.41428,1.82244-1.21607.10157-1.47738-.74315-1.49824-1.68271-.0767-3.45396-.01213-5.18221-.0111-5.2463Zm5.98172-5.54554c-.4599-.01858-.828-.00738-1.3051.00716-.67755.02064-1.24271.06149-1.64831.09705-.0613.49825-.12099,1.15067-.13588,1.91875-.0215,1.10965.07221,1.3456.21387,1.51348.23685.28072.57902.33727,1.7537.38618,1.62391.06759,2.44364.09788,2.82266-.07417.69835-.31698,1.68059-1.10875,1.60087-2.06061-.06406-.76507-.78198-1.24926-.92486-1.3456-.5461-.36827-1.15638-.39292-2.37695-.44224Z" style="stroke-width:0px;"/><path d="m83.58895,103.98563c.26522.04249.65393.14272,1.02018.4132,1.29226.95442,1.35504,3.32739.51638,4.90862-.50508.95236-1.19509,1.5612-1.74638,1.77953-1.7838.7064-3.61414,1.38918-5.58761,1.08282-6.05085-.93927-8.79263-7.94328-5.05057-12.85145,2.27066-2.97821,7.50717-3.67801,10.38009-1.36614.40296.32427.7626.73067,1.05253,1.15972.34224.50646.6712,1.12827.13877,1.66782-.51644.52334-1.21864.73651-1.91885.35524-.37234-.20276-.64559-.57999-.98603-.85021-2.87118-2.27897-6.54271-1.04543-7.27944,2.52076-.38018,1.84038-.09262,3.66363.98314,5.27474,1.23058,1.84301,5.06764,2.22435,6.60773.67659.85759-.86183.52203-1.9746-.69848-2.3082-.08261-.02256-.17606-.00289-.26072-.0207-.91555-.19259-2.22175-.18787-1.93233-1.53691.02946-.1372.08954-.39917.32145-.62209.27343-.26284.60342-.29612.70374-.30241,1.24547.00635,2.49094.01274,3.73641.0191Z" style="stroke-width:0px;"/><path d="m148.77659,109.9151c.01438.75592-.01746,1.50222-.4493,2.16558-.41169.51298-1.07307.74347-1.68476.58782-.78898-.20077-1.0859-.93982-1.11338-1.01177-.40579-.66304-.8298-1.32371-1.25613-1.9917-.71837-1.12564-1.03558-1.66313-1.26948-2.0358-.54751-.87236-1.36922-2.1229-2.51919-3.68-.19076-.20809-.49115-.2346-.67601-.09102-.13569.10546-.19705.29327-.16162.47979.0163,2.99808-.03453,5.2756-.08704,6.32723-.01528.30508-.05366.88391-.46471,1.25247-.21733.19487-.51747.31573-.91466.33749-1.13032.06194-1.25112-.75855-1.25356-1.58457-.01181-3.93989-.03286-7.88022.01695-11.81959.02105-1.66955,1.14945-2.2609,2.64075-1.52526.59899.29551.87935.83558,1.19014,1.35587,1.16498,1.95037,2.3152,3.90953,3.47107,5.86541l.45675.65913c.13364.17324.2674.34654.40104.51985.78692.82203,1.07422.85105,1.1963.78416.21682-.11874.10026-.64231-.00539-2.15088-.03864-.55232-.05931-1.00041-.07035-1.27756-.01271-1.39644-.02555-2.79288-.03826-4.18931.05327-.7108.34828-1.29791.89771-1.75492.51516-.42023,1.22313-.40585,1.63919-.02285.30476.28062.4226.73127.32311,1.16749-.08973,3.87762-.17946,7.75525-.2692,11.63294Z" style="stroke-width:0px;"/><path d="m121.36058,105.81988c-.03517-1.56271-.02054-2.81098-.0008-3.66164.02834-1.22166.07192-1.82552-.3597-2.20448-.45845-.40254-1.41653-.51924-2.06571-.4295-.11836.01637-.40123.02243-.78352.02664-.73817.00812-1.13388-.37671-1.18847-1.09605-.06297-.83067.30184-1.35468,1.1688-1.38273.95785-.03097,1.91757-.0052,2.87648-.00356,2.09231.00353,4.18469.0165,6.27694.00651.79867-.00382,1.38768.22398,1.41736,1.13401.03171.97149-.4209,1.45863-1.43325,1.36277-.34564-.03274-.69806-.02324-1.0455-.00218-1.81721.11014-1.93823.19185-1.97476,1.9659-.05029,2.44027-.03091,4.88201-.03957,7.32315-.00157.43586.01223.87181.00725,1.3076-.01123.97772.04361,2.03127-1.35818,2.06279-.38046.00857-.68121-.06663-.91231-.23848-.55929-.41593-.61202-1.26482-.62928-1.98615-.02596-1.08571-.0294-2.49816.04422-4.1846Z" style="stroke-width:0px;"/><path d="m133.72518,104.63128c0,1.92094-.00042,3.84184.00013,5.76278.00029.95471-.21451,1.79366-1.36451,1.8504-.44828.02211-.78096-.08084-1.01902-.27526-.48525-.39629-.49805-1.13132-.50364-1.40825-.07914-3.92779.05908-7.85699.07256-11.78554.00093-.27549-.00562-1.04354.49035-1.4398.36403-.29083.8618-.27189.98362-.26724.17526.00668.64437.02924.992.36397.33261.32026.44314.82865.39978,1.43678-.01245.17414-.02413.34882-.02433.52328-.00177,1.74629-.00106,3.49257-.00106,5.23886-.00863,0-.01727.00003-.0259.00003Z" style="stroke-width:0px;"/></svg>