<?xml version="1.0" encoding="UTF-8"?><svg id="Capa_1" xmlns="http://www.w3.org/2000/svg" width="198.32967" height="197.28073" viewBox="0 0 198.32967 197.28073"><path d="m95.77526,194.55805c-21.61169-.34182-44.009-9.01764-62.45845-26.88743C13.11264,148.10143,3.57366,123.94139,3.93526,95.84493c1.00527-24.74036,9.82837-46.27547,27.14377-63.98421C50.64322,11.85205,74.70233,2.3604,102.66979,2.74562c24.77181,1.02865,46.33568,9.8581,64.05182,27.2278,19.95635,19.56602,29.68043,43.60935,28.96455,71.52967-1.29621,50.55381-42.58292,92.93633-99.9109,93.05495Zm97.5617-95.08215c.73175-50.26249-40.09481-93.85319-92.56113-94.33135C48.26382,4.66602,6.86083,47.14186,6.32972,97.45506c-.5516,52.25111,41.1906,93.66386,91.44386,94.69347,52.87838,1.0834,95.24214-41.38792,95.56338-92.67263Z" style="fill:#36312b; fill-rule:evenodd; stroke-width:0px;"/><path d="m193.33697,99.4759c-.32124,51.28471-42.685,93.75603-95.56338,92.67263-50.25326-1.02962-91.99547-42.44237-91.44386-94.69347C6.86083,47.14186,48.26382,4.66602,100.77584,5.14455c52.46633.47816,93.29288,44.06886,92.56113,94.33135Zm-101.08676,71.97299c.0278.01982.05551.03964.08332.05945.04349.02299.09005.04156.13007.06946,2.67553,1.86739,5.35472,3.72948,8.01929,5.61237.28872.20405.46862.20608.7178-.02232.20377-.18684.44516-.33441.6773-.48835,1.92704-1.27706,3.84917-2.56048,5.68472-3.96953.66248-.50845,1.36038-.97093,2.0421-1.45447.98574-.05474,1.95147-.2587,2.91682-.43755,7.39846-1.37086,14.48068-3.69552,21.15547-7.18612,10.09025-5.27689,18.49726-12.54586,25.22024-21.71771,8.51986-11.62322,13.22893-24.65954,14.10644-39.05441.36925-6.05665-.04569-12.07261-1.19461-18.03103-1.36922-7.10108-3.74921-13.85101-7.13658-20.24237-1.44484-2.72614-3.02024-5.37339-4.8301-7.87632-.01828-1.75521.05156-3.50965.0609-5.264.02895-5.42977.0125-10.85981.03819-16.28959.0024-.50432-.13055-.6214-.624-.62034-7.82495.01597-15.65.01145-23.47504.01029-.24571,0-.49152-.01348-.73724-.02069-2.47937-1.37798-4.98557-2.70565-7.62127-3.76287-7.25108-2.90846-14.78037-4.63163-22.56886-5.21657-5.92244-.44476-11.80774-.09313-17.65187.92735-5.39542.94206-10.61911,2.48783-15.67135,4.6043-2.43443,1.0199-4.82548,2.13215-7.11888,3.44481-.26226.00818-.52442.02348-.78668.02358-7.1567.00125-14.31348.00741-21.47007-.01241-.51587-.00144-.60948.14547-.60775.62641.01799,5.02281.01222,10.04562.01039,15.06842-.00048,1.36221-.00981,2.72441-.01501,4.08661-.05657.05801-.12016.11073-.16884.17491-3.30704,4.353-6.09783,9.02254-8.36785,13.98829-2.33823,5.11527-4.02176,10.44738-5.07562,15.98354-.54963,2.88728-1.06631,5.77208-1.243,8.70871-.18746,3.11636-.07591,6.23618-.07692,9.35427-.00052,1.65871.1994,3.30743.42548,4.94989.4923,3.57555,1.17618,7.11628,2.09376,10.60544,1.02341,3.8915,2.42088,7.65794,4.13481,11.29583,3.56747,7.57231,8.29194,14.34051,14.09798,20.38302,5.40888,5.62911,11.55856,10.2311,18.47647,13.81791,6.63852,3.44202,13.64513,5.81892,21.00482,7.14697,1.77416.32018,3.55314.61525,5.35529.73657l-.0101-.01174Zm-15.75544,11.41628c-.02433-.00779-.04868-.01549-.07302-.02318,0-.33721-.01876-.67567.00308-1.01143.12131-1.86787.15114-3.73757.13055-5.60862-.00183-.17144.05233-.36712-.23561-.39012-.74205-.05917-1.43398-.33606-2.13648-.5506-.34943-.10669-.44419-.00674-.54627.30007-.5174,1.55442-1.0551,3.10202-1.58828,4.65115-.51173,1.48708-1.02981,2.97205-1.53471,4.46143-.04454.13142-.24081.32615.09409.41168.42774.1092.84615.25466,1.26821.38588.38184.11872.61813.06389.75571-.39185.50662-1.67795,1.05742-3.34264,1.59281-5.01193.10708-.33394.21964-.66614.32961-.99912.09005.17509.09323.33278.08957.49037-.03954,1.6898-.08659,3.37939-.11602,5.06928-.00769.43986-.18088,1.00421.07533,1.28716.24841.27429.81863.2412,1.23194.38724.33201.11737.48335.01318.64671-.27968,1.01383-1.81784,2.04729-3.62472,3.07941-5.43226.07514-.13162.10391-.3094.32816-.3856-.03309.18694-.05503.34644-.08986.50298-.44803,2.01525-.88934,4.03206-1.35681,6.0428-.06821.29333-.01693.43071.26081.50076.49181.12391.99094.22618,1.4714.38483.28419.09381.32624-.00962.37444-.24706.64862-3.19582,1.30139-6.39078,1.96878-9.58266.05638-.26977-.01962-.34-.2562-.3956-.65334-.15374-1.3087-.30633-1.94926-.50461-.38367-.11872-.57224-.03155-.76437.32903-1.00085,1.87904-2.03267,3.74142-3.05373,5.60967Zm15.44729-.71174c.00913.58783.21819,1.06801.39522,1.55828.52347,1.44898,1.09763,2.87805,1.71855,4.2873.241.54713.25553,1.33661.72599,1.59811.49027.27236,1.21683.10553,1.83699.16355.34798.03262.44034-.08639.45795-.42514.06311-1.21193.16096-2.42203.24726-3.6327.13988-1.96322.27698-3.92662.4261-5.88916.02376-.31325-.07572-.44861-.39619-.45534-.45862-.00963-.91802-.03416-1.37462-.07841-.35404-.03435-.47401.06638-.47709.45035-.01145,1.41069-.06533,2.82109-.10949,4.23139-.0202.64306-.05512,1.28553-.0834,1.92829-.12671-.10092-.1751-.21417-.21964-.32894-.78256-2.01584-1.57079-4.02955-2.34064-6.05021-.12353-.32442-.26515-.51365-.65065-.50153-.45747.01433-.92456.005-1.37366-.07331-.5656-.09871-.6722.1521-.70443.64603-.14768,2.25847-.32826,4.51473-.49719,6.77186-.06004.8013-.13047,1.60215-.17424,2.40442-.01155.21204-.12411.53645.2993.5203.52567-.02002,1.04972-.00914,1.56924.08293.20377.03617.28949-.02117.29391-.25178.04214-2.18083.34741-4.35051.28063-6.53653-.00365-.11862-.05464-.26044.15009-.41976Zm-6.46111-161.94343c-.06311-1.9028-.27861-3.237-.98632-4.44845-.66307-1.13486-1.62871-1.84786-2.95493-1.95408-1.71778-.13748-3.35341.24283-4.93785.89214-.32904.13479-.21926.35674-.1727.5657.67461,3.02381,1.36009,6.0453,2.02459,9.07142.06676.30391.16606.40975.48085.38579,1.25445-.09506,2.47628-.33278,3.60769-.89156,1.71586-.8472,2.99908-2.02229,2.93866-3.62097Zm13.2957,164.28994c.03021,0,.06032,0,.09053.0001,0,.78727-.00077,1.57453.0002,2.3618.00087.80372.00317,1.60744.00529,2.41115.00057.19299-.04464.38021.27024.40426,1.17961.09034,2.36113.17712,3.53246-.02915,1.56674-.27592,2.87478-.93831,3.63357-2.45541.66749-1.3345.64344-2.74673.46786-4.14058-.28275-2.24558-1.90385-3.67273-4.12451-3.83888-1.20202-.08996-2.38739.11882-3.58209.13248-.34472.00395-.29391.21984-.29383.43092.00058,1.57443.0003,3.14888.0003,4.72331Zm12.66919-6.15545c-.31345.01702-.62467-.00963-.93207.07474-1.47755.40552-2.39566,1.40848-2.99253,2.76694-.40668.92533-.30988,1.90145-.28218,2.86342.04021,1.39106.56407,2.61973,1.4256,3.69611.51971.6494,1.28235,1.02249,2.03729,1.21904,2.06154.53665,4.41497-.67028,4.97123-2.98647.46498-1.93619.19338-3.8206-.7434-5.57678-.73281-1.37384-1.90577-2.08087-3.48396-2.05701ZM71.21933,16.45818c-1.88778-.05051-3.84108,1.40588-4.15742,3.10501-.48027,2.57961.18222,4.81672,2.21932,6.55636,1.18345,1.01065,2.5268,1.27869,3.99579.7151,1.49305-.57281,2.4103-1.67949,2.60271-3.24575.31142-2.53575-.64517-4.62701-2.53305-6.29795-.63016-.55781-1.39636-.85355-2.12735-.83277Zm24.20255,1.09802c.10929-1.19932-.25081-2.33034-.72915-3.44317-.49922-1.16122-1.451-1.85026-2.565-2.22076-1.76694-.58754-3.54525.14123-4.50328,1.75887-1.12707,1.9029-1.15517,3.92643-.29911,5.90821.9158,2.12022,2.05133,3.08134,4.49087,2.83812,1.11206-.11083,1.99458-.60803,2.67573-1.47381.77014-.97901,1.00114-2.11733.92994-3.36745Zm25.33454,5.23311c-.02039.4061-.04666.84837-.06379,1.29101-.01279.33172.05042.63979.41861.7485.51827.15287,1.04394.28063,1.56539.42264.30853.08408.40311-.03281.39685-.34356-.01607-.8041.00693-1.60782.08582-2.41.06619-.6746-.08043-1.31506-.46256-1.8746-.23985-.35135-.26592-.47882.22099-.61678,1.07377-.30421,1.62908-1.13564,1.81438-2.18517.18567-1.05078.06667-2.01266-.96487-2.67534-1.34421-.86366-2.80984-1.30631-4.38148-1.4815-.48661-.05416-.72925.13122-.86953.57542-.15402.48806-.15989,1.0071-.30728,1.48766-.75946,2.47657-1.30429,5.00924-1.99371,7.5038-.06042.21878-.00828.32057.23456.36578.51528.09593,1.02865.21041,1.53355.35088.3247.09034.46083.00394.54126-.32423.2535-1.03461.5351-2.06231.80804-3.09211.03474-.13113.01021-.29767.24822-.28227.63045.0408,1.15035.53847,1.17257,1.17334.0155.44265.00298.88626.00298,1.36653Zm-57.93236,7.97917c1.80158-.00741,3.23056-.88453,4.59006-1.92204.58677-.44775.58811-.45814.29266-1.13092-.62602-1.42551-1.4587-2.75028-2.05018-4.19233-.10631-.25938-.24264-.14008-.38493-.07245-.69538.33009-1.38991.6621-2.08443.99392q-.79169.37828-.416,1.17007c.42158.88828.42437.89444,1.29688.49191.19991-.09226.31508-.10659.42042.12218.21897.47575.45045.94678.70136,1.40636.11439.20935.0508.31999-.10853.45362-.68817.57715-2.09069.62911-2.81061.07245-.83229-.64363-1.34584-1.5119-1.66237-2.50005-.44256-1.38154-.05994-2.42963,1.15622-3.22295.40157-.26198.83979-.43063,1.2962-.57648.29228-.09341.73147.06937.85125-.21118.10149-.23802-.07687-.59591-.13287-.9005-.18914-1.02855-.39214-1.14891-1.43013-.83489-.18731.05667-.37039.13114-.54934.21118-.64613.28881-1.23723.67201-1.81294,1.07916-1.26879.89723-1.87749,2.16592-1.97072,3.6783-.0966,1.56789.6545,2.87122,1.54491,4.05024.7939,1.05126,1.85006,1.80879,3.26307,1.83439Zm66.31271-3.27c1.47438,0,1.98159-.26004,2.77011-1.39212.37569-.53944.67355-1.12323.94669-1.72097.71675-1.56857,1.20114-3.22535,1.83804-4.82414.32575-.81795.32961-.82151-.48402-1.12889-.45429-.17164-.96756-.60592-1.35383-.42149-.38117.18203-.43967.83614-.61284,1.29419-.58551,1.54807-1.15853,3.10096-1.75069,4.64644-.18299.47767-.44294.91994-.84672,1.25099-.66153.54241-1.85546.20693-1.9534-.56744-.06524-.51616-.08274-1.05011.10438-1.55856.24908-.67653.49345-1.3549.75341-2.02728.48469-1.2535.97045-2.50679,1.47505-3.75239.14056-.34673.0431-.49547-.29477-.59879-.50067-.15307-.99739-.32547-1.48083-.52568-.26206-.10843-.34384-.0277-.40638.21175-.18702.71588-.48988,1.38914-.7761,2.06895-.5656,1.34344-1.25272,2.64995-1.53365,4.09075-.4846,2.48475-.25187,3.37746,1.94243,4.61276.5453.307,1.14285.39301,1.66314.34192Zm-2.60482,156.01224c-.08832-.22176.0964-.297.32653-.37069.54588-.17481,1.09061-.35597,1.62523-.56205.23638-.09111.34693-.02511.46248.17712.30054.52626.63247,1.03481.92618,1.56472.13084.2359.26977.27476.51356.19096.57301-.19703,1.15036-.38444,1.73424-.54558.284-.07832.28305-.17741.1421-.39936-1.8011-2.83543-3.59797-5.67356-5.38772-8.51611-.14065-.2234-.27072-.26668-.51903-.17654-.58389.21204-1.16988.439-1.77484.56627-.59024.12421-.73128.4339-.70011.98873.18165,3.24152.34182,6.48429.50057,9.72706.01308.26842.10583.29565.33249.21869.543-.18433,1.08493-.37896,1.64053-.51587.34501-.08505.38734-.25956.34943-.56204-.07129-.56897-.1117-1.1418-.17164-1.78533Zm-38.41915,3.84724c.05686-.2078-.03636-.30103-.29391-.34172-.92147-.14547-1.83698-.32904-2.75817-.47642-.22888-.03666-.30998-.09775-.26958-.33923.09477-.56542.19511-1.13284.23359-1.70355.02415-.35866.18934-.40542.4695-.34991.61024.12094,1.21923.24831,1.82929.37012.94245.18818.97314.16423,1.07811-.77216.02558-.22792.05378-.45612.0964-.68125.04647-.2459-.03502-.34634-.29161-.38502-.69596-.10496-1.38846-.23465-2.07991-.36712-.4971-.09525-.63795-.30536-.54203-.79824.06253-.32123.18769-.63477.21329-.95735.02828-.35635.19376-.37531.48037-.32788.80804.13382,1.621.23821,2.42866.37425.3097.05214.48759.02395.51173-.3529.02299-.35712.09034-.71828.19213-1.06174.10044-.33923-.00212-.45814-.33374-.51346-1.63111-.27179-3.26115-.55098-4.88725-.85134-.29998-.05542-.36011.03656-.40282.30084-.16721,1.03471-.3577,2.06568-.53876,3.09817-.37329,2.12947-.74301,4.25969-1.12266,6.38809-.0556.31152-.01317.45102.35617.50423,1.32978.19145,2.65014.44775,3.97914.64555.47296.07043,1.09763.42707,1.38741.10458.2816-.31344.18789-.96409.26466-1.50652Zm50.36919-155.31502c.17481.02165.18645-.12266.23099-.21666.16856-.3552.30556-.72704.49634-1.06925.17769-.31874.10583-.49335-.20694-.65566-.90175-.46824-1.80215-.93995-2.7446-1.32093-.3198-.1292-.33144-.23551-.08198-.45429.42101-.36925.87694-.68971,1.34479-.99229,1.36268-.88088,2.73989-1.73963,4.09498-2.63215.59601-.39262,1.08273-.89857,1.3115-1.60829.08303-.25727.07966-.40581-.22705-.51635-.44486-.16028-.86836-.38348-1.29255-.59639-1.25916-.63189-2.51813-1.26426-3.76854-1.91298-.41177-.21358-.66971-.13768-.83614.29844-.12247.32104-.25996.63727-.4087.94716-.13998.2918-.09563.45439.22917.59591.85576.3731,1.68988.79526,2.53969,1.1824.28757.13094.38147.23408.05965.43919-.31759.20242-.61573.43515-.93081.64189-1.60253,1.05203-3.21247,2.09291-4.80941,3.1533-.48527.32211-.84211.77091-1.10398,1.29765-.1471.29584-.09293.44054.22109.58918,1.88095.8903,3.75026,1.80543,5.62362,2.7119.08841.04272.17865.08168.25889.11824Zm-16.28275,145.75025c-.06186-.31758-.17173-.63824-.17423-.95967-.00298-.35943-.14066-.40166-.44073-.33797-1.7629.37463-3.5287.73599-5.29151,1.11139-.81555.17375-.81353.18366-.69115,1.02346.03541.2434.09928.48661.10054.73021.00182.36001.16509.38839.46642.32393.91387-.19559,1.83246-.36934,2.7498-.54867.6036-.11805.60428-.11575.43197.48171-.0227.0787-.04887.15653-.07514.23408-.68316,2.01814-1.36307,4.03735-2.0521,6.05338-.1955.57186-.26496,1.12611-.08813,1.7301.09583.3274.1727.40408.50683.33134,1.87432-.40811,3.75431-.79054,5.6317-1.18432.8701-.1825.87048-.18539.68558-1.06204-.05071-.24052-.13306-.477-.15788-.71982-.03079-.30219-.14816-.38242-.44842-.31508-1.00719.2257-2.02007.42581-3.02987.63987-.53011.11227-.55185.10121-.4033-.41619.52462-1.8291,1.21558-3.60211,1.83718-5.3985.19328-.55839.35924-1.12341.44246-1.71721ZM113.51681,12.43025c-2.50977.00068-4.0135,1.06858-4.82049,3.30762-.27015.74964-.39013,1.5221-.42427,2.31244-.10786,2.49351,1.47313,4.46885,3.9296,4.88148.73098.12276,1.47486.03435,2.21257.05022.24629.00539.29863-.15056.29767-.35568-.00172-.42687-.01732-.8547.00607-1.28023.01654-.30026-.09121-.34846-.36685-.31402-.3071.03829-.62294.01713-.93456.00779-1.33508-.03992-2.3872-.92955-2.58991-2.2503-.16057-1.04559-.01385-2.06653.49278-3.00783.5783-1.07416,1.52778-1.55731,2.69641-1.36692.35145.05724.69587.18924,1.02769.32566.32855.13508.47479.03897.55647-.29073.08649-.34923.185-.70116.33086-1.02846.15845-.35559.01607-.48267-.29545-.61236-.72695-.30286-1.47159-.45092-2.11859-.37868Zm-12.85122,3.42807c-.19617-.21165-.18953-.38329-.22811-.53568-.28593-1.12832-.65517-2.23106-1.01595-3.33648-.14105-.43216-.378-.70193-.89801-.62554-.32123.04724-.65508.00876-.98323.00876-1.07098,0-1.09244.00953-.64199,1.025.61101,1.3776,1.25532,2.74057,1.89231,4.10662.33086.70943.51029,1.43879.47748,2.23316-.03724.90089.00731,1.80495-.01684,2.7068-.00896.33365.10265.4238.4159.40917.45844-.02136.92071-.03222,1.37741.0025.41648.03175.57013-.07398.56031-.52923-.02328-1.08196.02386-2.16534.02905-3.24816.00135-.28815.06985-.54464.19819-.79901.81161-1.60782,1.61725-3.21862,2.42424-4.82866.49076-.97929.49018-.98824-.62938-.97189-.5049.00731-1.11495-.19126-1.48641.08245-.37089.27314-.36636.9132-.52635,1.39213-.31479.94206-.61688,1.88836-.94861,2.90806Z" style="fill:#d9d7d8; fill-rule:evenodd; stroke-width:0px;"/><path d="m41.60385,54.31529c.00529-1.36221.01462-2.7244.0151-4.08661.00182-5.0228.0076-10.04561-.01039-15.06842-.00173-.48094.09188-.62785.60775-.62641,7.15659.01982,14.31337.01366,21.47007.01241.26226-.0001.52442-.0154.78678-.02358.04502.0176.09014.05119.13498.05061,1.74348-.01982,3.48849.08255,5.23061-.05945.19549.0128.39099.03694.58648.03694,19.61211.00173,39.22412.00173,58.83623,0,.19558,0,.39108-.02396.58667-.03685,1.34729.14287,2.69863.04319,4.04794.06224.40196.00567.81084.07052,1.20923-.05051.24572.00721.49153.02069.73724.02069,7.82504.00115,15.65009.00567,23.47504-.01029.49345-.00106.62641.11602.624.62034-.02569,5.42977-.00924,10.85982-.03819,16.28959-.00934,1.75435-.07919,3.50879-.0609,5.2639-.06725,1.40588-.11844,2.81215-.08197,4.22014-.00635.1803-.01491.36049-.01885.54089-.06889,3.15003-.03464,6.30217-.18482,9.45057-.12979,2.72065-.29248,5.43996-.39166,8.16167-.04839,1.32824-.05618,2.65888-.20194,3.98001-.14248,1.29081.01886,2.57144-.23581,3.89121-.49855,2.58375-.49855,5.24764-.83662,7.86834-.45112,3.49599-.96621,6.97899-1.65592,10.43563-.74052,3.71169-1.62899,7.38721-2.76684,10.99836-.92042,2.92096-1.97197,5.79372-3.14695,8.62414-1.36662,3.29241-3.06181,6.41349-4.82519,9.50069-3.55948,6.23185-7.98879,11.81333-12.89239,17.02307-5.57898,5.92735-11.7228,11.23358-18.12686,16.24542-.12728.09957-.33749.14075-.3476.36087l.00644-.00442c-.10351-.06321-.15162.01164-.20184.08111-1.44292,1.05597-2.88593,2.11195-4.32886,3.16792-.68173.48354-1.37962.94602-2.0421,1.45447-1.83555,1.40905-3.75768,2.69247-5.68472,3.96953-.23214.15393-.47353.30151-.6773.48835-.24918.2284-.42908.22637-.7178.02232-2.66457-1.88289-5.34375-3.74498-8.01929-5.61237-.04002-.0279-.08659-.04647-.13017-.06946-.0277-.01981-.05541-.03963-.08322-.05945l.0101.01174c-1.32911-.98623-2.65821-1.97255-3.98732-2.95878-.18818-.15642-.37146-.31921-.56522-.46834-5.37444-4.13606-10.5583-8.48983-15.4266-13.22151-5.12632-4.9825-9.7438-10.39051-13.74123-16.30883-4.00821-5.93417-7.17766-12.31139-9.52821-19.07816-1.97639-5.6899-3.43096-11.51585-4.36436-17.47177-.53298-3.40084-1.18258-6.78494-1.40155-10.22773-.17587-2.76683-.64171-5.50288-.78102-8.27703-.29382-5.85201-.53751-11.7047-.64863-17.56278-.04829-2.54364-.08707-5.08746-.13017-7.63128-.02742-1.31305-.05474-2.62609-.08215-3.93913Zm12.62638,48.71923c0,.72223-.00828,1.44456.00164,2.16669.02203,1.59155.02867,3.18389.08996,4.774.03559.92312.66345,1.38876,1.5603,1.20914,1.70527-.34154,3.3382-.94717,5.01001-1.41242,5.93283-1.65122,11.85479-3.34139,17.78002-5.01973,7.37518-2.08904,14.74882-4.18349,22.12448-6.27081,6.63438-1.87749,13.27087-3.74748,19.90582-5.62275,2.6943-.76158,5.38647-1.53086,8.08077-2.29244,6.41473-1.81332,12.83168-3.61884,19.2444-5.43929,1.75396-.49797,2.11175-.98256,2.08462-2.80734-.06254-4.20186-.13998-8.40344-.22003-12.60502-.02867-1.50401-.55098-1.90491-2.01911-1.55038-3.58316.86539-7.08233,2.0293-10.63959,2.99244-7.4458,2.01584-14.85195,4.17791-22.27437,6.27976-11.1418,3.15502-22.28649,6.29957-33.42435,9.46836-7.4508,2.11994-14.92968,4.14213-22.34411,6.38944-1.25311.37982-2.54412.6292-3.76807,1.11043-.95303.37463-1.39366,1.05135-1.3977,2.08366-.00856,2.18459.09169,4.36493.20531,6.54625Zm47.19357-65.0852h-30.14347c-7.30601,0-14.61202-.0001-21.91811.00009-.88934.0001-1.04616.16047-1.04626,1.06628-.0002,1.55971-.00222,3.11943.00097,4.67915.00154.71693.23234.94861.92937.94861,34.70765.00009,69.4153.00009,104.12305-.0001.85009,0,1.03434-.18318,1.03559-1.04135.00231-1.52691.00067-3.05383.00067-4.58064,0-.96593-.10544-1.07195-1.0682-1.07195-17.30456-.00009-34.60904-.00009-51.91361-.00009Zm.65536,98.13029h-.00586c0-5.99172.00029-11.98343-.0001-17.97515-.00029-5.38435-.00385-10.7687.00365-16.15305.00048-.35665-.03002-.51741-.45237-.36983-.57061.19945-1.15795.36973-1.75165.47863-.45891.08418-.53837.30142-.53819.72878.01088,22.16122.01886,44.32236-.01981,66.48348-.00183,1.06002.31988,1.69806,1.22405,2.11974.05926.02761.11198.07215.17317.09179.07417.02376.16038.0557.23051.03896.56724-.13594,1.1366-.87559,1.1366-1.46284v-33.98051Zm7.61599,29.13675c.80237-.60495,1.50613-1.16238,2.2398-1.67719.35742-.25091.48787-.52769.48758-.97083-.01183-21.09264-.01038-42.18529-.01038-63.27784,0-.08206-.00886-.16528.00154-.2461.05051-.39204-.12363-.43572-.45622-.3347-.53222.16163-1.06973.31296-1.61378.4262-.49258.10246-.67663.31835-.67605.86413.02155,19.9928.02318,39.98561.02742,59.9785.00038,1.70653.0001,3.41297.0001,5.23783Zm10.34174-8.3918c.85114-.74772,1.60263-1.43166,2.38287-2.08106.29478-.24534.38954-.50538.38935-.88107-.00836-19.15935-.00702-38.31871-.00673-57.47806,0-.09852-.01126-.19858.00202-.29526.04445-.32567-.12016-.34818-.37329-.27785-.59985.16663-1.19653.3501-1.80437.48027-.45333.09698-.61179.28929-.6114.78476.01838,19.71755.01877,39.4351.02156,59.15266v.59562Zm-28.38528-52.47864c-.78717.21782-1.50805.43438-2.23845.61207-.36251.08822-.48527.25053-.48364.63719.01587,3.66108.00846,7.32226.00789,10.98344-.0027,15.23563-.00375,30.47124-.01675,45.70687-.00038.40167.10911.68635.42457.92282.64286.4821,1.27234.98199,1.91338,1.4665.10823.08177.20963.22233.393.14826v-60.47715Zm38.74771,42.3449c.93456-.95775,1.69411-1.87778,2.46791-2.78608.26169-.30718.35655-.62534.35626-1.02807-.01145-16.48055-.01279-32.9611-.01549-49.44156,0-.09852-.00673-.19751.00115-.29535.01954-.24167-.04589-.31671-.307-.23686-.64199.19636-1.28812.38704-1.94387.5276-.44987.0964-.57658.29737-.5761.76389.01617,17.28484.01559,34.56969.01713,51.85454.00009.16163,0,.32325,0,.64189Zm-49.09223-39.46955c-.7355.19925-1.43994.41033-2.15476.57648-.45448.10564-.61862.3096-.61727.80689.02213,7.71643.02011,15.43295.0229,23.14947.0027,7.32246.00395,14.64491.00981,21.96737.0002.18664-.07062.39233.11276.55222.8597.74994,1.71567,1.50411,2.62656,2.30379v-49.35623Zm-31.03358-38.17747v-15.11469c0-2.29753-.00923-4.59517.00914-6.8926.00307-.37695-.10871-.48123-.47084-.46468-.58956.02703-1.18365.03963-1.77138-.00279-.47805-.03454-.59475.12103-.59417.59475.01375,12.17699.0227,24.35418.00105,36.53117-.00452,2.51881.31672,5.00779.51519,7.50823.07399.93215.1166.92945,1.01124.68913.23686-.06369.47054-.13988.70866-.19819.44496-.10901.60543-.34962.60418-.83989-.01895-7.27012-.01308-14.54034-.01308-21.81045Zm7.59761-1.13371v13.59423c0,2.46272.00491,4.92543-.00567,7.38806-.00144.33778.03618.47748.42707.34904.55916-.18376,1.13361-.33538,1.7124-.44072.46777-.08525.61708-.27794.6165-.77246-.01597-13.59413-.0128-27.18835-.0128-40.78249,0-.08206-.0099-.16558.00173-.24601.04599-.31777-.07466-.43832-.40503-.42581-.59013.02223-1.18345.0329-1.77233-.0027-.43525-.02626-.57466.08563-.57349.55367.01693,6.92839.01163,13.85678.01163,20.78517Zm82.94614,64.74212c.9461-1.35297,1.75339-2.73931,2.46974-4.17829.18761-.37694.26803-.75898.26765-1.18133-.00923-9.35522-.0102-18.71055-.01279-28.06577-.00087-2.88863-.00203-5.77736-.00308-8.66599q-.00019-.6064-.60341-.4365c-.52028.14643-1.03394.3271-1.5628.42802-.43274.08255-.56522.26351-.56474.71194.0127,13.63896.00981,27.27793.00943,40.91698-.0001.15692,0,.31393,0,.47094Zm-72.60681-66.10519v19.39804c0,.11487.00626.23013-.00087.34462-.01298.20905.05994.24196.25996.1825.65912-.19607,1.31833-.40061,1.99015-.54184.44149-.09274.54271-.29401.54223-.73031-.01357-12.66948-.01096-25.33896-.01096-38.00844,0-.09852-.00904-.1979.00144-.29526.02569-.23945-.08226-.31152-.31248-.30757-.63987.01096-1.28196.03434-1.91934-.00693-.45863-.02973-.56118.12334-.56022.56704.01472,6.46602.0101,12.93203.0101,19.39815Zm10.3378-1.45399v17.87017c0,.11488.00876.23052-.00154.34442-.02358.26159.08832.30209.32066.2386.64747-.17693,1.29255-.37713,1.95195-.49113.44843-.07754.51769-.28862.51731-.69-.00962-11.7329-.00779-23.4659-.00779-35.1988,0-.08206-.00885-.16519.00145-.24591.03328-.26159-.08341-.33808-.33568-.33259-.63968.01385-1.28187.03531-1.91914-.00616-.44324-.02895-.53838.11469-.53732.54281.01481,5.98949.0101,11.97909.0101,17.96859Zm-7.6662,81.35322c.03627-.0151.07254-.03021.10891-.04532v-.56791c.00029-11.68422.00047-23.36835.00077-35.05247,0-.11487-.01174-.23118.00202-.34433.03608-.29699-.10891-.32614-.34674-.25918-.63044.17741-1.25752.37146-1.89615.51307-.4237.0939-.55377.27977-.5531.72935.01607,10.07592.03387,20.15193-.0153,30.22765-.00596,1.233.23639,2.21836,1.13785,3.06671.56426.53097,1.04405,1.1519,1.56174,1.73241Zm18.047-82.7998c0,5.48402-.0001,10.96805,0,16.45207,0,.13142.00587.26303-.00058.39407-.01048.21464.08947.24658.27506.1955.6318-.17385,1.26331-.34943,1.89981-.50432.43265-.10535.57695-.33096.57628-.79632-.0153-10.75456-.01183-21.50922-.01183-32.26388,0-.06561-.00837-.13257.00144-.19675.04483-.2944-.10092-.35799-.36597-.35135-.60717.01492-1.21712.03627-1.82169-.00558-.46574-.03223-.56349.13382-.56233.57512.01491,5.50049.00981,11.00096.00981,16.50144Zm10.47835,14.22977c.70597-.25851,1.43773-.42466,2.17554-.5631.3984-.07475.50519-.30459.50413-.69636-.01193-4.44681-.00751-8.89362-.00751-13.34033,0-5.36568-.00865-10.73148.01357-16.09706.00222-.51943-.14903-.6468-.6315-.6089-.52183.04098-1.05251.04464-1.57358-.00115-.4743-.04156-.55348.14306-.553.57368.01165,10.0586.00876,20.1172.01136,30.1758.0001.17394-.04522.35587.06099.55743Zm10.27478-17.07809c0,4.58005.00327,9.16002-.00663,13.73998-.00078.3424.04416.46815.42138.34712.57628-.18501,1.16209-.35982,1.75713-.46074.48113-.08168.56955-.30738.56878-.75638-.01357-8.81521-.01011-17.63052-.01011-26.44574,0-.04926-.00606-.09938.00097-.14758.05416-.37098-.06609-.53097-.47671-.50451-.57214.03685-1.15045.0381-1.7224-.0001-.4311-.02887-.5454.0964-.54366.53732.01819,4.56351.01125,9.12712.01125,13.69063Zm10.33789-1.40915c0,4.05534.00509,8.11068-.00769,12.16593-.00135.4212.04098.59994.52626.43437.55618-.18981,1.13583-.32402,1.71508-.4286.42784-.07736.56156-.2462.56061-.70155-.0177-7.89711-.0128-15.7944-.0128-23.6916,0-.08206-.00895-.16529.00144-.24601.03329-.26014-.07975-.33952-.33403-.33384-.63997.01433-1.28245.03512-1.92011-.00596-.44207-.02848-.54089.11275-.53915.5428.01732,4.08815.01039,8.1763.01039,12.26445Zm10.37955-1.48247v8.4681c0,.85336-.0001,1.70682.00019,2.56018,0,.16298-.03762.34663.24543.27024.72675-.19635,1.45639-.38165,2.18544-.56906.33875-.08698.39099-.32278.39071-.63652-.00645-6.97476-.00761-13.94942.0024-20.92419.00048-.37116-.0736-.52808-.4819-.50528-.6216.03492-1.24811.03425-1.86979.0002-.40687-.02223-.48142.13431-.48008.505.0127,3.61038.00761,7.22086.00761,10.83133Zm10.41726-1.4816c0,3.13281-.0002,6.26562.0001,9.39843.0001.56579.00154.56791.56859.4209.53827-.1396,1.07252-.29594,1.61368-.42293.41677-.09784.56974-.31334.56166-.75994-.02857-1.59051-.01116-3.18188-.01116-4.77286,0-4.37947-.00567-8.75883.00886-13.1382.00144-.43072-.07947-.62073-.55704-.58081-.53751.04483-1.08349.03742-1.62245.00173-.43524-.02886-.57792.08534-.57435.55367.02338,3.09981.01212,6.19991.01212,9.3Zm-80.20547,76.26472c0-2.97118-.00038-5.79015.00009-8.60923.00068-3.52706-.00307-7.05423.00991-10.58129.00145-.40783-.05667-.56965-.51105-.40908-.58523.20676-1.18845.37146-1.79436.5074-.35597.07986-.4516.2387-.45035.59582.01318,3.59267.00654,7.18545.00586,10.77822q-.00067,3.12521,1.57945,5.85712c.34192.59013.65094,1.20221,1.16046,1.86104Zm90.54355-77.64548c0,2.67525.00539,5.35039-.00674,8.02554-.00154.34154.07552.41196.40773.31296.64296-.19154,1.29563-.35385,1.95089-.49854.31816-.07033.44429-.18462.44005-.5454-.02318-1.98553-.01106-3.97155-.01106-5.95746.0001-3.11829-.00499-6.23666.00732-9.35494.00134-.33779-.08034-.45795-.43274-.44198-.62237.0282-1.24811.02983-1.87028-.00029-.3805-.01837-.4972.0887-.4946.48382.01809,2.65871.00943,5.31759.00943,7.97629Zm-.00077,50.66868c.0303-.00596.06051-.01193.09082-.01799.07466-.35058.1571-.69981.22281-1.05213.81535-4.3683,1.53172-8.75132,1.94946-13.17871.12478-1.32247.26043-2.64398.40503-3.96433.03357-.30661.00394-.41475-.34529-.29805-.58946.19713-1.19066.36954-1.79831.49894-.40638.08649-.53617.25466-.53492.68307.01645,5.59716.01058,11.19452.0104,16.79177v.53742Z" style="fill:#0181c2; fill-rule:evenodd; stroke-width:0px;"/><path d="m88.27299,168.50185c1.32911.98623,2.65821,1.97255,3.98732,2.95878-1.80215-.12132-3.58113-.41639-5.35529-.73657-7.35969-1.32805-14.3663-3.70495-21.00482-7.14697-6.9179-3.58681-13.06758-8.18881-18.47647-13.81791-5.80603-6.0425-10.5305-12.81071-14.09798-20.38302-1.71393-3.63789-3.1114-7.40433-4.13481-11.29583-.91758-3.48916-1.60147-7.02989-2.09376-10.60544-.22609-1.64246-.42601-3.29117-.42548-4.94989.00101-3.11809-.11054-6.2379.07692-9.35427.17669-2.93663.69337-5.82142,1.243-8.70871,1.05386-5.53617,2.73739-10.86828,5.07562-15.98354,2.27002-4.96575,5.06081-9.63528,8.36785-13.98829.04868-.06418.11227-.1169.16884-.17491.02733,1.31304.05465,2.62608.08216,3.93922-1.03933,1.41531-1.96706,2.90335-2.8588,4.41372-5.99951,10.16221-9.26336,21.14402-9.7899,32.92868-.24187,5.41322.13916,10.79016,1.14723,16.12064,1.17249,6.19981,3.12776,12.13774,5.89334,17.8085,4.00233,8.2066,9.39313,15.37609,16.13556,21.52625,4.71513,4.30096,9.92285,7.89941,15.61102,10.79526,5.60553,2.85391,11.48988,4.92439,17.65015,6.19693.92379.19078,1.83921.46834,2.79829.45736Z" style="fill:#37312b; fill-rule:evenodd; stroke-width:0px;"/><path d="m109.60481,171.25551c1.44292-1.05597,2.88593-2.11195,4.32895-3.16792.07399-.01029.17452.04531.20174-.08111l-.00644.00442c.35078.03983.67576-.09236,1.00643-.16547,6.43466-1.42233,12.5522-3.70458,18.33996-6.85095,8.64752-4.70108,16.04059-10.91205,22.09927-18.66734,8.55141-10.94602,13.52429-23.33996,14.82828-37.18693.54896-5.83066.3655-11.64121-.53693-17.42377-1.05992-6.79207-3.06922-13.29646-6.04857-19.4956-1.20673-2.51074-2.51496-4.96604-4.05697-7.29081-.03647-1.408.01472-2.81426.08197-4.22014,1.80986,2.50303,3.38526,5.15028,4.8301,7.87642,3.38737,6.39136,5.76736,13.14128,7.13658,20.24237,1.14892,5.95842,1.56386,11.97438,1.19461,18.03103-.87751,14.39487-5.58658,27.43119-14.10644,39.05441-6.72298,9.17185-15.12999,16.44082-25.22024,21.71771-6.67478,3.4906-13.75701,5.81527-21.15547,7.18612-.96534.17885-1.93108.38282-2.91682.43755Z" style="fill:#37312b; fill-rule:evenodd; stroke-width:0px;"/><path d="m69.83875,34.51385c-1.74212.142-3.48714.03963-5.23061.05945-.04483.00058-.08996-.033-.13498-.05061,2.2933-1.31265,4.68435-2.42491,7.11878-3.44481,5.05224-2.11647,10.27594-3.66224,15.67135-4.6043,5.84413-1.02047,11.72943-1.37211,17.65187-.92735,7.78849.58494,15.31779,2.30812,22.56886,5.21657,2.6357,1.05722,5.1419,2.38489,7.62127,3.76287-.39839.12103-.80727.05618-1.20923.05051-1.34931-.01905-2.70064.08063-4.04794-.06224-.16595-.16952-.39358-.22638-.59908-.32038-7.6613-3.5034-15.68781-5.58456-24.09297-6.20683-5.45805-.40417-10.89185-.20175-16.29718.64122-5.36213.83614-10.55946,2.28551-15.58621,4.33348-1.16315.47382-2.34015.92273-3.43394,1.5524Z" style="fill:#37312b; fill-rule:evenodd; stroke-width:0px;"/><path d="m76.49477,182.86516c1.02106-1.86825,2.05288-3.73064,3.05373-5.60967.19213-.36058.3807-.44775.76437-.32903.64055.19828,1.29592.35087,1.94926.50461.23658.0556.31258.12584.2562.3956-.66739,3.19188-1.32016,6.38684-1.96878,9.58266-.0482.23744-.09025.34087-.37444.24706-.48047-.15864-.97959-.26091-1.4714-.38483-.27775-.07005-.32903-.20743-.26081-.50076.46747-2.01074.90878-4.02754,1.35681-6.0428.03483-.15653.05677-.31604.08986-.50298-.22425.0762-.25302.25399-.32816.3856-1.03212,1.80754-2.06558,3.61443-3.07941,5.43226-.16336.29286-.3147.39705-.64671.27968-.41331-.14604-.98353-.11295-1.23194-.38724-.2562-.28295-.08302-.8473-.07533-1.28716.02944-1.68988.07648-3.37948.11602-5.06928.00365-.15759.00048-.31527-.08957-.49037-.10996.33298-.22253.66517-.32961.99912-.53539,1.66929-1.08618,3.33398-1.59281,5.01193-.13758.45574-.37387.51057-.75571.39185-.42206-.13122-.84047-.27668-1.26821-.38588-.3349-.08553-.13863-.28026-.09409-.41168.50489-1.48938,1.02297-2.97435,1.53471-4.46143.53318-1.54913,1.07088-3.09673,1.58828-4.65115.10208-.30681.19685-.40677.54627-.30007.7025.21454,1.39443.49143,2.13648.5506.28794.02299.23378.21868.23561.39012.02059,1.87105-.00924,3.74074-.13055,5.60862-.02184.33576-.00308.67422-.00308,1.01143.02434.00769.04869.01539.07302.02318Z" style="fill:#37312c; fill-rule:evenodd; stroke-width:0px;"/><path d="m91.94206,182.15342c-.20473.15932-.15374.30114-.15009.41976.06677,2.18602-.2385,4.3557-.28063,6.53653-.00442.23061-.09014.28794-.29391.25178-.51952-.09207-1.04357-.10295-1.56924-.08293-.42341.01616-.31085-.30826-.2993-.5203.04377-.80227.1142-1.60311.17424-2.40442.16894-2.25713.34952-4.51339.49719-6.77186.03223-.49393.13883-.74475.70443-.64603.4491.07831.91618.08764,1.37366.07331.38551-.01212.52712.17711.65065.50153.76985,2.02065,1.55808,4.03437,2.34064,6.05021.04454.11477.09293.22802.21964.32894.02828-.64276.06321-1.28524.0834-1.92829.04416-1.4103.09804-2.82071.10949-4.23139.00307-.38397.12305-.4847.47709-.45035.4566.04425.916.06878,1.37462.07841.32046.00673.41995.14209.39619.45534-.14913,1.96254-.28622,3.92594-.4261,5.88916-.0863,1.21067-.18415,2.42077-.24726,3.6327-.01761.33875-.10996.45776-.45795.42514-.62016-.05802-1.34672.10881-1.83699-.16355-.47046-.26149-.48499-1.05097-.72599-1.59811-.62092-1.40925-1.19508-2.83832-1.71855-4.2873-.17702-.49027-.38609-.97045-.39522-1.55828Z" style="fill:#37312c; fill-rule:evenodd; stroke-width:0px;"/><path d="m85.48095,20.20999c.06042,1.59868-1.2228,2.77376-2.93866,3.62097-1.1314.55878-2.35324.7965-3.60769.89156-.31479.02396-.41408-.08188-.48085-.38579-.6645-3.02611-1.34998-6.04761-2.02459-9.07142-.04656-.20896-.15634-.43091.1727-.5657,1.58444-.6493,3.22006-1.02962,4.93785-.89214,1.32622.10622,2.29186.81921,2.95493,1.95408.7077,1.21145.92321,2.54565.98632,4.44845Zm-2.49197-.47151c.0405-.95429-.12266-1.82881-.55983-2.63782-.74995-1.38789-1.53885-1.593-3.06518-1.31949-.29248.05234-.34933.18549-.29546.43284.43265,1.9864.86934,3.97183,1.29476,5.95967.06071.28343.20964.39647.47334.31864.82796-.24427,1.60445-.55829,1.96677-1.4486.17798-.43717.21281-.88434.18559-1.30525Z" style="fill:#37312b; fill-rule:evenodd; stroke-width:0px;"/><path d="m98.77665,184.49993c0-1.57443.00029-3.14888-.0003-4.72331-.00009-.21108-.05089-.42697.29383-.43092,1.1947-.01365,2.38007-.22243,3.58209-.13248,2.22066.16615,3.84176,1.5933,4.12451,3.83888.17559,1.39385.19963,2.80609-.46786,4.14058-.75878,1.5171-2.06683,2.17949-3.63357,2.45541-1.17133.20627-2.35285.11949-3.53246.02915-.31488-.02405-.26967-.21127-.27024-.40426-.00212-.80372-.00442-1.60744-.00529-2.41115-.00096-.78727-.0002-1.57453-.0002-2.3618-.03021-.0001-.06032-.0001-.09053-.0001Zm2.3694-.05147c0,1.01634.00317,2.03267-.00241,3.04902-.00125.22233.02492.35779.30681.38214,1.39367.12026,2.29994-.439,2.7169-1.78783.35645-1.15324.31557-2.32851-.05926-3.47184-.39061-1.19134-1.09927-1.64149-2.37055-1.61591-.40985.00819-.62083.11458-.60236.59255.03666.94937.01088,1.90115.01088,2.85188Z" style="fill:#36312b; fill-rule:evenodd; stroke-width:0px;"/><path d="m111.44584,178.34448c1.57819-.02386,2.75115.68316,3.48396,2.05701.93677,1.75618,1.20837,3.64059.7434,5.57678-.55626,2.31619-2.9097,3.52312-4.97123,2.98647-.75494-.19655-1.51758-.56964-2.03729-1.21904-.86154-1.07637-1.38539-2.30504-1.4256-3.69611-.0277-.96197-.1245-1.9381.28218-2.86342.59687-1.35845,1.51498-2.36141,2.99253-2.76694.30739-.08437.61862-.05772.93207-.07474Zm1.89336,5.88232c.08986-1.01634-.08677-1.9836-.59821-2.87382-.22224-.38666-.48883-.74416-.91571-.92407-.85268-.35924-1.70759.13593-2.01786,1.21741-.45987,1.6032-.19415,3.13493.60611,4.57188.40089.71992,1.0223,1.0097,1.65843.8729.58628-.12613,1.19316-.83624,1.25964-1.54087.04127-.43745.0076-.88203.0076-1.32343Z" style="fill:#37312b; fill-rule:evenodd; stroke-width:0px;"/><path d="m71.21933,16.45818c.73098-.02078,1.49719.27496,2.12735.83277,1.88788,1.67094,2.84447,3.7622,2.53305,6.29795-.19241,1.56626-1.10966,2.67293-2.60271,3.24575-1.46899.56358-2.81234.29555-3.99579-.7151-2.0371-1.73964-2.69959-3.97675-2.21932-6.55636.31634-1.69913,2.26964-3.15552,4.15742-3.10501Zm2.33987,6.84315c-.06186-1.16064-.40802-2.24097-.95139-3.25913-.25485-.47738-.55329-.931-1.02009-1.23858-.68134-.44881-1.72981-.39455-2.18651.5938-.23455.50749-.19116,1.01422-.0989,1.53595.23071,1.30543.65287,2.53035,1.54624,3.54005.56734.64113,1.16085.78765,1.78619.50268.67827-.30912.97602-.84989.92446-1.67478Z" style="fill:#36312b; fill-rule:evenodd; stroke-width:0px;"/><path d="m95.42188,17.5562c.0712,1.25013-.15979,2.38845-.92994,3.36745-.68115.86577-1.56366,1.36298-2.67573,1.47381-2.43954.24322-3.57507-.7179-4.49087-2.83812-.85606-1.98178-.82796-4.00531.29911-5.90821.95803-1.61763,2.73634-2.34641,4.50328-1.75887,1.114.3705,2.06577,1.05954,2.565,2.22076.47834,1.11283.83844,2.24385.72915,3.44317Zm-2.48119.10881c.07562-1.07627-.14441-2.11619-.72579-3.06691-.20743-.33903-.46853-.6314-.8598-.7711-.80372-.28719-1.6491.13845-1.93464,1.10658-.50182,1.70124-.18895,3.32849.67316,4.85358.32066.56724.84191.81603,1.49295.72444.62573-.08812.94639-.5276,1.16094-1.07387.22147-.56367.21627-1.15218.19318-1.77272Z" style="fill:#36312b; fill-rule:evenodd; stroke-width:0px;"/><path d="m120.75642,22.78931c0-.48027.01251-.92388-.00298-1.36653-.02223-.63487-.54213-1.13255-1.17257-1.17334-.23802-.0154-.21349.15114-.24822.28227-.27294,1.0298-.55454,2.0575-.80804,3.09211-.08043.32817-.21656.41457-.54126.32423-.5049-.14046-1.01827-.25495-1.53355-.35088-.24283-.04521-.29498-.14701-.23456-.36578.68942-2.49456,1.23425-5.02723,1.99371-7.5038.14739-.48056.15326-.9996.30728-1.48766.14028-.44419.38291-.62958.86953-.57542,1.57164.17519,3.03728.61785,4.38148,1.4815,1.03154.66267,1.15055,1.62456.96487,2.67534-.1853,1.04953-.74061,1.88096-1.81438,2.18517-.48691.13796-.46084.26543-.22099.61678.38214.55954.52876,1.2.46256,1.8746-.07889.80218-.10189,1.6059-.08582,2.41.00626.31075-.08832.42764-.39685.34356-.52145-.142-1.04712-.26977-1.56539-.42264-.36819-.10871-.43139-.41677-.41861-.7485.01713-.44264.0434-.88492.06379-1.29101Zm1.6463-5.51298c.00212-.88242-.74387-1.55145-1.62975-1.48699-.20387.01492-.22945.11911-.26823.26929-.15008.58321-.3121,1.16324-.46487,1.74578q-.20089.76552.56569.93139c.98508.2131,1.79485-.44438,1.79716-1.45946Z" style="fill:#37312b; fill-rule:evenodd; stroke-width:0px;"/><path d="m62.82406,30.76848c-1.413-.02559-2.46917-.78313-3.26307-1.83439-.8904-1.17903-1.6415-2.48235-1.54491-4.05024.09323-1.51239.70193-2.78107,1.97072-3.6783.57571-.40715,1.16681-.79035,1.81294-1.07916.17895-.08004.36203-.15451.54934-.21118,1.03799-.31402,1.24098-.19366,1.43013.83489.056.30459.23436.66248.13287.9005-.11979.28055-.55897.11777-.85125.21118-.45641.14585-.89463.3145-1.2962.57648-1.21616.79332-1.59878,1.84141-1.15622,3.22295.31652.98815.83008,1.85643,1.66237,2.50005.71992.55666,2.12244.5047,2.81061-.07245.15932-.13363.22291-.24427.10853-.45362-.25091-.45958-.48239-.93062-.70136-1.40636-.10534-.22878-.22051-.21444-.42042-.12218-.87251.40253-.8753.39637-1.29688-.49191q-.37559-.7915.416-1.17007c.69452-.33182,1.38905-.66383,2.08443-.99392.1423-.06763.27862-.18694.38493.07245.59148,1.44206,1.42416,2.76683,2.05018,4.19233.29545.67278.29411.68317-.29266,1.13092-1.35951,1.03751-2.78848,1.91463-4.59006,1.92204Z" style="fill:#37312c; fill-rule:evenodd; stroke-width:0px;"/><path d="m129.13677,27.49848c-.52029.05109-1.11784-.03492-1.66314-.34192-2.1943-1.2353-2.42703-2.12802-1.94243-4.61276.28093-1.4408.96804-2.74731,1.53365-4.09075.28622-.6798.58908-1.35307.7761-2.06895.06254-.23945.14432-.32018.40638-.21175.48344.20022.98016.37262,1.48083.52568.33787.10332.43533.25206.29477.59879-.5046,1.24559-.99036,2.49889-1.47505,3.75239-.25996.67239-.50432,1.35075-.75341,2.02728-.18712.50845-.16961,1.0424-.10438,1.55856.09794.77437,1.29187,1.10985,1.9534.56744.40378-.33106.66374-.77333.84672-1.25099.59216-1.54548,1.16517-3.09837,1.75069-4.64644.17317-.45805.23167-1.11216.61284-1.29419.38627-.18442.89954.24986,1.35383.42149.81363.30738.80978.31094.48402,1.12889-.6369,1.59879-1.1213,3.25557-1.83804,4.82414-.27314.59774-.57099,1.18153-.94669,1.72097-.78852,1.13207-1.29573,1.39212-2.77011,1.39212Z" style="fill:#37312c; fill-rule:evenodd; stroke-width:0px;"/><path d="m126.53196,183.51072c.05994.64353.10035,1.21635.17164,1.78533.03791.30248-.00442.47699-.34943.56204-.55559.13691-1.09753.33154-1.64053.51587-.22667.07696-.31941.04973-.33249-.21869-.15875-3.24277-.31893-6.48554-.50057-9.72706-.03117-.55484.10987-.86452.70011-.98873.60495-.12727,1.19095-.35424,1.77484-.56627.24831-.09014.37838-.04685.51903.17654,1.78975,2.84255,3.58662,5.68067,5.38772,8.51611.14095.22195.1419.32104-.1421.39936-.58388.16114-1.16122.34855-1.73424.54558-.24379.0838-.38272.04493-.51356-.19096-.29372-.52991-.62564-1.03846-.92618-1.56472-.11555-.20223-.2261-.26823-.46248-.17712-.53462.20608-1.07935.38724-1.62523.56205-.23013.07369-.41485.14893-.32653.37069Zm-.66576-6.12544c-.02107.01136-.04214.02271-.06321.03406.1167,1.2279.23927,2.45522.34548,3.68399.02309.26717.09803.34221.36492.24783.36665-.12969.74089-.25726,1.12265-.31922.38445-.06234.31354-.21309.16972-.44977-.53328-.87751-1.0577-1.7605-1.58743-2.64022-.11314-.18809-.23456-.37126-.35212-.55666Z" style="fill:#37312b; fill-rule:evenodd; stroke-width:0px;"/><path d="m88.1128,187.35796c-.07677.54242.01693,1.19308-.26466,1.50652-.28978.32249-.91445-.03415-1.38741-.10458-1.32901-.1978-2.64937-.4541-3.97914-.64555-.36934-.05321-.41177-.19271-.35617-.50423.37964-2.1284.74937-4.25862,1.12266-6.38809.18105-1.03249.37155-2.06346.53876-3.09817.04272-.26428.10284-.35626.40282-.30084,1.62609.30036,3.25614.57955,4.88725.85134.33163.05532.43418.17423.33374.51346-.10179.34346-.16913.70462-.19213,1.06174-.02415.37685-.20204.40504-.51173.3529-.80766-.13604-1.62062-.24043-2.42866-.37425-.2866-.04743-.45208-.02847-.48037.32788-.02559.32258-.15076.63612-.21329.95735-.09593.49288.04492.70299.54203.79824.69145.13248,1.38395.26216,2.07991.36712.25659.03868.33808.13913.29161.38502-.04262.22513-.07081.45333-.0964.68125-.10497.93639-.13566.96034-1.07811.77216-.61005-.12181-1.21904-.24918-1.82929-.37012-.28016-.0555-.44535-.00875-.4695.34991-.03848.57071-.13882,1.13813-.23359,1.70355-.0404.24148.0407.30257.26958.33923.92119.14738,1.83669.33095,2.75817.47642.25755.0407.35078.13392.29391.34172Z" style="fill:#37312c; fill-rule:evenodd; stroke-width:0px;"/><path d="m138.482,32.04294c-.08024-.03656-.17048-.07552-.25889-.11824-1.87336-.90646-3.74267-1.82159-5.62362-2.7119-.31402-.14864-.36819-.29334-.22109-.58918.26188-.52674.61871-.97554,1.10398-1.29765,1.59695-1.06039,3.20688-2.10127,4.80941-3.1533.31509-.20675.61323-.43947.93081-.64189.32181-.20511.22792-.30825-.05965-.43919-.8498-.38714-1.68392-.80929-2.53969-1.1824-.3248-.14152-.36915-.30411-.22917-.59591.14874-.30988.28622-.62612.4087-.94716.16643-.43611.42437-.51202.83614-.29844,1.25041.64872,2.50938,1.2811,3.76854,1.91298.42418.21291.84769.43611,1.29255.59639.30671.11055.31008.25909.22705.51635-.22877.70972-.7155,1.21567-1.3115,1.60829-1.35509.89252-2.7323,1.75127-4.09498,2.63215-.46786.30257-.92378.62304-1.34479.99229-.24946.21878-.23782.32508.08198.45429.94245.38098,1.84285.85269,2.7446,1.32093.31277.16231.38464.33692.20694.65566-.19078.34221-.32777.71405-.49634,1.06925-.04454.09399-.05618.23831-.23099.21666Z" style="fill:#37312c; fill-rule:evenodd; stroke-width:0px;"/><path d="m122.19925,177.7932c-.08322.5938-.24918,1.15882-.44246,1.71721-.6216,1.79639-1.31256,3.5694-1.83718,5.3985-.14855.5174-.12681.52846.4033.41619,1.00979-.21407,2.02267-.41417,3.02987-.63987.30026-.06735.41763.01289.44842.31508.02483.24282.10718.4793.15788.71982.18491.87665.18452.87954-.68558,1.06204-1.87739.39378-3.75738.7762-5.6317,1.18432-.33413.07273-.411-.00394-.50683-.33134-.17683-.60399-.10736-1.15824.08813-1.7301.68903-2.01603,1.36894-4.03524,2.0521-6.05338.02626-.07754.05244-.15538.07514-.23408.17232-.59745.17164-.59976-.43197-.48171-.91735.17933-1.83593.35307-2.7498.54867-.30132.06446-.4646.03608-.46642-.32393-.00125-.2436-.06513-.48681-.10054-.73021-.12238-.83979-.1244-.84971.69115-1.02346,1.76282-.3754,3.52861-.73676,5.29151-1.11139.30007-.06369.43775-.02146.44073.33797.00249.32143.11237.64209.17423.95967Z" style="fill:#37312c; fill-rule:evenodd; stroke-width:0px;"/><path d="m113.51681,12.43025c.647-.07224,1.39163.07582,2.11859.37868.31152.12969.45391.25677.29545.61236-.14585.3273-.24437.67923-.33086,1.02846-.08168.32971-.22792.42581-.55647.29073-.33181-.13642-.67624-.26842-1.02769-.32566-1.16863-.19039-2.11811.29276-2.69641,1.36692-.50663.9413-.65335,1.96224-.49278,3.00783.20271,1.32074,1.25484,2.21038,2.58991,2.2503.31162.00934.62746.0305.93456-.00779.27564-.03444.38339.01376.36685.31402-.02339.42553-.00779.85336-.00607,1.28023.00097.20512-.05138.36107-.29767.35568-.73771-.01587-1.48159.07254-2.21257-.05022-2.45647-.41263-4.03746-2.38796-3.9296-4.88148.03415-.79034.15412-1.5628.42427-2.31244.80699-2.23905,2.31072-3.30694,4.82049-3.30762Z" style="fill:#37312c; fill-rule:evenodd; stroke-width:0px;"/><path d="m100.66559,15.85833c.33172-1.01971.63382-1.966.94861-2.90806.15999-.47893.15547-1.11899.52635-1.39213.37146-.27371.98151-.07514,1.48641-.08245,1.11956-.01635,1.12014-.00741.62938.97189-.80699,1.61004-1.61263,3.22084-2.42424,4.82866-.12834.25437-.19684.51086-.19819.79901-.00519,1.08282-.05233,2.1662-.02905,3.24816.00981.45525-.14383.56098-.56031.52923-.4567-.03473-.91897-.02386-1.37741-.0025-.31324.01463-.42485-.07552-.4159-.40917.02415-.90185-.0204-1.80591.01684-2.7068.03281-.79438-.14662-1.52374-.47748-2.23316-.63699-1.36605-1.2813-2.72903-1.89231-4.10662-.45045-1.01547-.42899-1.025.64199-1.025.32816,0,.662.03848.98323-.00876.52001-.07639.75696.19338.89801.62554.36078,1.10542.73002,2.20816,1.01595,3.33648.03858.1524.03194.32403.22811.53568Z" style="fill:#37312c; fill-rule:evenodd; stroke-width:0px;"/><path d="m92.25021,171.44889c.0278.01982.05551.03964.08322.05945-.0277-.01981-.05541-.03963-.08322-.05945Z" style="fill:#37312b; fill-rule:evenodd; stroke-width:0px;"/><path d="m88.27299,168.50185c-.95909.01097-1.8745-.26659-2.79829-.45736-6.16027-1.27254-12.04462-3.34302-17.65015-6.19693-5.68817-2.89585-10.89589-6.4943-15.61102-10.79526-6.74242-6.15016-12.13322-13.31965-16.13556-21.52625-2.76558-5.67076-4.72085-11.6087-5.89334-17.8085-1.00806-5.33047-1.38909-10.70742-1.14723-16.12064.52654-11.78466,3.79039-22.76647,9.7899-32.92868.89174-1.51037,1.81947-2.99841,2.8588-4.41372.043,2.54373.08178,5.08755.13007,7.63119.11113,5.85808.35482,11.71077.64863,17.56278.13931,2.77415.60515,5.5102.78102,8.27703.21896,3.44279.86856,6.82689,1.40155,10.22773.93341,5.95593,2.38797,11.78187,4.36436,17.47177,2.35055,6.76677,5.52,13.14398,9.52821,19.07816,3.99743,5.91831,8.61491,11.32633,13.74123,16.30883,4.8683,4.73168,10.05216,9.08545,15.4266,13.22151.19376.14912.37704.31191.56522.46834Z" style="fill:#fefefe; fill-rule:evenodd; stroke-width:0px;"/><path d="m159.76052,60.93004c1.54201,2.32476,2.85024,4.78007,4.05697,7.29081,2.97936,6.19914,4.98865,12.70353,6.04857,19.4956.90243,5.78256,1.0859,11.59311.53693,17.42377-1.30399,13.84697-6.27688,26.24091-14.82828,37.18693-6.05867,7.75529-13.45175,13.96626-22.09927,18.66734-5.78776,3.14637-11.9053,5.42862-18.33996,6.85095-.33066.07311-.65565.2053-1.00643.16547.01011-.22012.22031-.2613.3476-.36087,6.40406-5.01184,12.54788-10.31807,18.12686-16.24542,4.9036-5.20974,9.33291-10.79122,12.89239-17.02307,1.76339-3.0872,3.45857-6.20828,4.82519-9.50069,1.17499-2.83042,2.22653-5.70318,3.14695-8.62414,1.13785-3.61115,2.02632-7.28667,2.76684-10.99836.6897-3.45664,1.2048-6.93964,1.65592-10.43563.33808-2.6207.33808-5.28459.83662-7.86834.25467-1.31977.09332-2.60039.23581-3.89121.14576-1.32113.15355-2.65177.20194-3.98001.09919-2.72172.26188-5.44102.39166-8.16167.15018-3.14839.11592-6.30054.18482-9.45057.00394-.18039.0125-.36059.01885-.54089Z" style="fill:#fdfefe; fill-rule:evenodd; stroke-width:0px;"/><path d="m54.23023,103.03452c-.11362-2.18131-.21387-4.36166-.20531-6.54625.00404-1.03232.44467-1.70904,1.3977-2.08366,1.22395-.48123,2.51496-.73061,3.76807-1.11043,7.41443-2.24731,14.89331-4.2695,22.34411-6.38944,11.13786-3.16879,22.28255-6.31334,33.42435-9.46836,7.42242-2.10185,14.82857-4.26392,22.27437-6.27976,3.55727-.96314,7.05644-2.12705,10.63959-2.99244,1.46812-.35452,1.99044.04637,2.01911,1.55038.08004,4.20157.15749,8.40316.22003,12.60502.02713,1.82477-.33066,2.30937-2.08462,2.80734-6.41272,1.82045-12.82967,3.62597-19.2444,5.43929-2.6943.76158-5.38647,1.53086-8.08077,2.29244-6.63495,1.87527-13.27144,3.74526-19.90582,5.62275-7.37566,2.08732-14.7493,4.18176-22.12448,6.27081-5.92523,1.67835-11.8472,3.36852-17.78002,5.01973-1.67181.46526-3.30474,1.07089-5.01001,1.41242-.89685.17962-1.5247-.28602-1.5603-1.20914-.06129-1.59012-.06793-3.18245-.08996-4.774-.00991-.72214-.00164-1.44446-.00164-2.16669Zm37.32383-12.37913c-.10641,1.51162.39685,2.88536,1.39145,4.07709.9009,1.07954,2.00487,1.85055,3.45809,1.94156,2.46849.1547,4.38706-.96516,6.03971-2.67188.25293-.26121.30075-.54338.19319-.89993-.32605-1.08137-.65017-2.16505-.91378-3.26259-.10265-.42716-.24629-.52067-.65123-.40079-.94148.27881-1.90472.48748-2.83736.7915-1.47438.48055-1.35931.03463-.90224,1.70402.10304.37627.2792.4566.6369.33625.52693-.17721,1.06598-.31883,1.60185-.46814.15114-.04215.28949-.10381.39051.13449.39657.93677.33153,1.25879-.45189,1.89307-.11458.09274-.23206.1829-.35443.26506-1.6589,1.1136-3.51321.77774-4.54369-.83595-.67624-1.05886-.95226-2.24433-.84297-3.47627.11112-1.2531.94293-2.01872,2.09156-2.34487,1.3903-.39484,2.07606-.23686,2.85381.75187.11708.14893.19048.18192.35115.10179.52741-.26294,1.0579-.51991,1.5906-.77216.16374-.07754.22705-.14845.10698-.32942-.56801-.85596-1.24424-1.57097-2.29464-1.8087-.74494-.16855-1.4919-.16894-2.24569-.03367-2.97608.53405-4.90399,2.83275-4.66789,5.30768Zm-4.95845,5.20444c-.09832-1.52479-.45718-2.72738-1.15333-3.86446-1.21173-1.97928-2.8741-2.65351-5.11392-2.05451-1.32776.3551-2.6434.75706-3.97702,1.08734-.35751.08861-.42158.213-.33153.51952.19376.65951.38723,1.31901.57272,1.98082.72445,2.58384,1.44985,5.16731,2.16294,7.75423.09236.33529.21964.44179.57811.33241,1.3926-.42515,2.80349-.7914,4.18994-1.23464,2.13214-.68163,3.21477-2.30657,3.07209-4.5207Zm46.89725-9.25844c-.77457-1.01797-1.49612-1.97023-2.22201-2.91922-1.52382-1.99227-3.0593-3.97569-4.56736-5.97978-.30845-.40985-.59812-.57744-1.09821-.35183-.35471.15999-.74243.27082-1.12678.3346-.38646.06408-.47054.25573-.50432.61814-.26727,2.8717-.56118,5.74099-.8447,8.61116-.08351.8447-.15999,1.69007-.24427,2.58356.7128-.19271,1.37067-.37549,2.03162-.54608.1979-.05108.23301-.16576.24466-.35231.04185-.67046.11699-1.33892.15826-2.00938.0152-.24629.09717-.37512.34634-.4413,1.18615-.31509,2.3694-.64122,3.54978-.97719.26293-.07475.41937-.00644.57705.21031.39522.54338.81526,1.06867,1.22357,1.60263.10121.13238.17953.24282.39715.17788.65758-.19645,1.32477-.36039,2.07923-.56118Zm-66.29886,18.35708c.406.00462.7966-.02723,1.18557-.10275,2.1006-.40772,3.66859-2.26694,3.67619-4.33049.00124-.35424-.06716-.51172-.45545-.47603-.37444.03444-.75735.03608-1.1315.00029-.48161-.04618-.67105.07928-.69164.61871-.04714,1.2377-.73127,2.10117-1.72962,2.28098-1.09206.19665-2.01593-.09458-2.68044-1.03029-.92706-1.30516-1.25667-2.77655-1.08031-4.3407.10496-.9308.75686-1.52719,1.60147-1.83477.80141-.2918,1.60109-.25677,2.33169.30046.27121.20685.36299.70761.76985.6341.33846-.06119.64334-.31152.96111-.48161.18789-.10054.3653-.2234.55954-.30854.26919-.11804.26823-.25447.11006-.47979-.60688-.865-1.38462-1.52951-2.425-1.73405-2.69517-.52981-5.3148.97131-5.98873,3.55055-.41215,1.57723-.15249,3.11116.50432,4.55649.86712,1.90808,2.26993,3.14089,4.48289,3.17744Zm44.71132-12.49977c3.15494-.00452,5.09728-1.85652,5.24043-4.51069.01617-.29882-.08408-.3655-.35414-.35626-.47536.01635-.95342.0303-1.42685-.00347-.38589-.02761-.47796.10324-.49951.48325-.09583,1.68392-1.20721,2.61838-2.8463,2.4076-.9539-.12276-1.54394-.74417-1.93762-1.5678-.36164-.75658-.63073-1.55442-.75129-2.3821-.11612-.79785-.09323-1.58204.37242-2.32023.74744-1.185,2.4785-1.50921,3.57228-.65133.26833.21041.35568.71935.74081.65047.34895-.06234.65777-.34971.9841-.53838.21282-.12305.42005-.25697.6393-.36712.18904-.09496.17192-.1954.06446-.34395-.58032-.80169-1.26292-1.49958-2.25299-1.73308-2.03594-.48036-4.69569.28737-5.80497,2.49688-1.0705,2.13244-.6163,4.21216.45343,6.20664.9133,1.70258,2.38094,2.50842,3.80644,2.52958Zm23.16112-17.41579c.08303.29757.22348.67028.28497,1.0555.07417.46458.28708.48344.67557.35241.72838-.24572,1.4763-.43294,2.20922-.66624.31036-.09881.42322,0,.49874.29978.30805,1.22193.63477,2.43848.99902,3.64598.43505,1.44206.82411,2.89816,1.21741,4.35243.07966.2945.17856.40388.49778.28776.42946-.15634.8725-.28679,1.31987-.37915.36107-.07447.396-.26833.31701-.5632-.15258-.56936-.29131-1.14267-.4517-1.7098-.57465-2.03257-1.14487-4.0665-1.74347-6.09206-.1269-.42909-.00972-.58715.40263-.66585.40061-.07648.79207-.20578,1.18345-.32527.46189-.14114,1.16478-.08053,1.32517-.45285.15325-.35607-.20983-.9184-.29603-1.39905-.06023-.33538-.20761-.32797-.47181-.25062-.83258.24389-1.67141.46689-2.50765.69866-1.68835.46795-3.37775.93225-5.06293,1.41136-.15701.04473-.43525.0001-.39724.40022Zm1.46996,10.39234c-.14547-.5353-.29315-1.07012-.43505-1.60637-.03252-.12334-.10295-.15932-.21464-.12248-.60082.198-1.40089.14469-1.75945.59966-.25736.32643.18731,1.00248.31834,1.52258.01183.04694.03868.09004.05725.13536.08745.21358.23455.30219.46651.23609.42418-.12084.84904-.23956,1.27514-.35337.21435-.05715.28506-.1979.29189-.41148Zm-45.02419,12.64995c-.15028-.58542-.30007-1.17104-.45112-1.75636-.04021-.15615-.15807-.14691-.27314-.11275-.51635.15355-1.03124.3118-1.54673.46804-.18914.05744-.25447.16414-.1952.36838.13671.47045.24735.94851.38367,1.41906.03541.12228.04474.30383.28083.23888.5351-.14739,1.07637-.27207,1.61311-.41379.09688-.02559.25274-.02838.18857-.21147Zm14.77181-6.16565c-.5203.14402-1.0403.28891-1.56097.43158-.18463.05061-.15586.18078-.1219.31306.12623.49173.25938.98171.37762,1.47534.05195.21724.14893.30671.37915.23686.47007-.14239.94399-.27207,1.41636-.40686.25101-.07167.35924-.22724.25717-.48017-.16037-.39772-.25505-.81074-.33114-1.23116-.03849-.21272-.16038-.36184-.41629-.33865Zm13.75374-1.61274c.53328-.15028,1.06752-.29737,1.59926-.45275.18606-.05425.18529-.19693.142-.35529-.13344-.48758-.26669-.97535-.39186-1.46505-.05089-.19934-.15499-.26236-.35432-.20588-.48624.13786-.9741.27014-1.46351.39647-.19732.05089-.26563.152-.21098.35365.13661.50355.2662,1.00912.39205,1.51556.03896.15682.12276.22176.28737.21329Zm-43.28206,11.82295c-.15105-.56869-.30594-1.13641-.45102-1.70662-.05369-.21089-.19184-.13296-.30806-.1017-.48903.13181-.97477.27564-1.46428.40581-.19847.05281-.26255.1547-.20886.35626.13469.50538.26785,1.01162.3807,1.5221.04214.19059.10967.24446.29727.18712.51577-.15769,1.03606-.30027,1.55222-.45689.09496-.02887.2512-.0254.20204-.20608Z" style="fill:#fbfbfd; fill-rule:evenodd; stroke-width:0px;"/><path d="m101.4238,37.94933c17.30457,0,34.60905,0,51.91361.00009.96275,0,1.0682.10602,1.0682,1.07195,0,1.52681.00164,3.05373-.00067,4.58064-.00125.85817-.1855,1.04135-1.03559,1.04135-34.70775.00019-69.4154.00019-104.12305.0001-.69702,0-.92783-.23167-.92937-.94861-.00318-1.55972-.00116-3.11944-.00097-4.67915.0001-.9058.15692-1.06618,1.04626-1.06628,7.3061-.00019,14.61211-.00009,21.91811-.00009h30.14347Z" style="fill:#fbfcfd; fill-rule:evenodd; stroke-width:0px;"/><path d="m69.83875,34.51385c1.09379-.62968,2.27079-1.07859,3.43394-1.5524,5.02675-2.04797,10.22408-3.49734,15.58621-4.33348,5.40533-.84298,10.83913-1.0454,16.29718-.64122,8.40517.62227,16.43168,2.70343,24.09297,6.20683.2055.09399.43313.15086.59908.32038-.19558.01289-.39108.03685-.58667.03685-19.61212.00173-39.22412.00173-58.83623,0-.19549,0-.39099-.02415-.58648-.03694Z" style="fill:#fdfefe; fill-rule:evenodd; stroke-width:0px;"/><path d="m102.07916,136.07962v33.98051c0,.58726-.56936,1.3269-1.1366,1.46284-.07013.01674-.15634-.0152-.23051-.03896-.06119-.01963-.11391-.06417-.17317-.09179-.90417-.42168-1.22588-1.05972-1.22405-2.11974.03867-22.16112.03069-44.32226.01981-66.48348-.00019-.42736.07928-.64459.53819-.72878.5937-.1089,1.18105-.27919,1.75165-.47863.42235-.14758.45285.01318.45237.36983-.00751,5.38435-.00394,10.7687-.00365,16.15305.00038,5.99172.0001,11.98343.0001,17.97515h.00586Z" style="fill:#f8fafc; fill-rule:evenodd; stroke-width:0px;"/><path d="m109.69515,165.21637c0-1.82486.00028-3.5313-.0001-5.23783-.00424-19.99289-.00587-39.9857-.02742-59.9785-.00058-.54578.18347-.76167.67605-.86413.54405-.11324,1.08156-.26458,1.61378-.4262.33259-.10102.50673-.05734.45622.3347-.01039.08082-.00154.16404-.00154.2461,0,21.09255-.00145,42.1852.01038,63.27784.0003.44314-.13016.71992-.48758.97083-.73367.51481-1.43744,1.07223-2.2398,1.67719Z" style="fill:#f7fafc; fill-rule:evenodd; stroke-width:0px;"/><path d="m120.03689,156.82457v-.59562c-.00279-19.71755-.00317-39.43511-.02156-59.15266-.00038-.49547.15807-.68778.6114-.78476.60784-.13017,1.20452-.31364,1.80437-.48027.25313-.07033.41774-.04782.37329.27785-.01328.09668-.00202.19675-.00202.29526-.0003,19.15935-.00164,38.31871.00673,57.47806.0002.37569-.09457.63574-.38935.88107-.78024.6494-1.53173,1.33334-2.38287,2.08106Z" style="fill:#fcfcfd; fill-rule:evenodd; stroke-width:0px;"/><path d="m91.65161,104.34593v60.47715c-.18337.07407-.28477-.06649-.393-.14826-.64104-.4845-1.27052-.9844-1.91338-1.4665-.31546-.23648-.42495-.52115-.42457-.92282.01299-15.23563.01405-30.47124.01675-45.70687.00057-3.66118.00798-7.32236-.00789-10.98344-.00164-.38666.12113-.54896.48364-.63719.7304-.1777,1.45129-.39425,2.23845-.61207Z" style="fill:#f9fafc; fill-rule:evenodd; stroke-width:0px;"/><path d="m130.39931,146.69083c0-.31864.00009-.48027,0-.64189-.00155-17.28485-.00097-34.5697-.01713-51.85454-.00048-.46652.12623-.66749.5761-.76389.65574-.14056,1.30188-.33124,1.94387-.5276.26111-.07985.32653-.00481.307.23686-.00788.09785-.00115.19684-.00115.29535.0027,16.48046.00404,32.96101.01549,49.44156.0003.40273-.09457.72089-.35626,1.02807-.7738.9083-1.53335,1.82833-2.46791,2.78608Z" style="fill:#f6f9fc; fill-rule:evenodd; stroke-width:0px;"/><path d="m81.30708,107.22128v49.35623c-.91089-.79968-1.76686-1.55385-2.62656-2.30379-.18338-.15989-.11257-.36559-.11276-.55222-.00586-7.32246-.00711-14.64491-.00981-21.96737-.00279-7.71652-.00077-15.43304-.0229-23.14947-.00135-.49729.16279-.70125.61727-.80689.71483-.16615,1.41926-.37723,2.15476-.57648Z" style="fill:#fcfcfd; fill-rule:evenodd; stroke-width:0px;"/><path d="m50.2735,69.04381c0,7.27012-.00587,14.54034.01308,21.81045.00125.49027-.15922.73088-.60418.83989-.23811.0583-.4718.1345-.70866.19819-.89464.24032-.93726.24302-1.01124-.68913-.19847-2.50044-.51971-4.98942-.51519-7.50823.02164-12.17699.0127-24.35418-.00105-36.53117-.00058-.47373.11612-.62929.59417-.59475.58773.04242,1.18181.02982,1.77138.00279.36213-.01655.47391.08774.47084.46468-.01837,2.29744-.00914,4.59507-.00914,6.8926v15.11469Z" style="fill:#f6f9fc; fill-rule:evenodd; stroke-width:0px;"/><path d="m57.8711,67.9101c0-6.92839.00529-13.85678-.01163-20.78517-.00116-.46804.13825-.57994.57349-.55367.58888.0356,1.1822.02492,1.77233.0027.33038-.01251.45102.10804.40503.42581-.01163.08043-.00173.16394-.00173.24601,0,13.59413-.00317,27.18835.0128,40.78249.00058.49451-.14873.68721-.6165.77246-.57878.10534-1.15323.25696-1.7124.44072-.39089.12844-.42851-.01126-.42707-.34904.01058-2.46263.00567-4.92535.00567-7.38806v-13.59423Z" style="fill:#f9fafc; fill-rule:evenodd; stroke-width:0px;"/><path d="m140.81724,132.65222c0-.15701-.0001-.31402,0-.47094.00038-13.63906.00327-27.27803-.00943-40.91698-.00048-.44843.13199-.62939.56474-.71194.52886-.10092,1.04251-.2816,1.5628-.42802q.60323-.1698.60341.4365c.00105,2.88863.00222,5.77736.00308,8.66599.00259,9.35522.00356,18.71055.01279,28.06577.00038.42235-.08004.80439-.26765,1.18133-.71635,1.43898-1.52364,2.82533-2.46974,4.17829Z" style="fill:#f9fafc; fill-rule:evenodd; stroke-width:0px;"/><path d="m68.21044,66.54703c0-6.46611.00462-12.93213-.0101-19.39815-.00097-.44371.10159-.59677.56022-.56704.63738.04127,1.27947.01789,1.91934.00693.23022-.00395.33818.06811.31248.30757-.01048.09736-.00144.19675-.00144.29526,0,12.66948-.0026,25.33896.01096,38.00844.00048.4363-.10073.63757-.54223.73031-.67182.14123-1.33103.34577-1.99015.54184-.20002.05945-.27294.02655-.25996-.1825.00712-.11449.00087-.22975.00087-.34462v-19.39804Z" style="fill:#fcfcfd; fill-rule:evenodd; stroke-width:0px;"/><path d="m78.54823,65.09305c0-5.9895.00471-11.9791-.0101-17.96859-.00106-.42812.09408-.57176.53732-.54281.63727.04147,1.27946.02001,1.91914.00616.25226-.00549.36895.071.33568.33259-.01029.08071-.00145.16384-.00145.24591,0,11.7329-.00182,23.4659.00779,35.1988.00038.40138-.06888.61246-.51731.69-.6594.114-1.30448.31421-1.95195.49113-.23234.06349-.34424.02299-.32066-.2386.01029-.1139.00154-.22954.00154-.34442v-17.87017Z" style="fill:#fcfcfd; fill-rule:evenodd; stroke-width:0px;"/><path d="m70.88203,146.44627c-.51769-.58052-.99748-1.20144-1.56174-1.73241-.90146-.84836-1.14381-1.83371-1.13785-3.06671.04917-10.07572.03137-20.15173.0153-30.22765-.00067-.44958.1294-.63545.5531-.72935.63863-.14162,1.26571-.33567,1.89615-.51307.23783-.06696.38282-.03781.34674.25918-.01376.11315-.00202.22945-.00202.34433-.0003,11.68412-.00048,23.36825-.00077,35.05247v.56791c-.03637.01511-.07264.03022-.10891.04532Z" style="fill:#fcfcfd; fill-rule:evenodd; stroke-width:0px;"/><path d="m88.92903,63.64647c0-5.50048.00509-11.00095-.00981-16.50144-.00115-.4413.0966-.60735.56233-.57512.60457.04185,1.21452.02049,1.82169.00558.26505-.00664.4108.05695.36597.35135-.00981.06417-.00144.13113-.00144.19675,0,10.75466-.00347,21.50932.01183,32.26388.00067.46536-.14364.69097-.57628.79632-.63651.15489-1.26802.33046-1.89981.50432-.18559.05108-.28554.01914-.27506-.1955.00645-.13104.00058-.26265.00058-.39407-.0001-5.48402,0-10.96805,0-16.45207Z" style="fill:#f9fafc; fill-rule:evenodd; stroke-width:0px;"/><path d="m99.40738,77.87624c-.10621-.20156-.06089-.38349-.06099-.55743-.0026-10.0586.00029-20.1172-.01136-30.1758-.00047-.43063.0787-.61525.553-.57368.52106.04579,1.05174.04214,1.57358.00115.48248-.0379.63372.08947.6315.6089-.02222,5.36559-.01357,10.73138-.01357,16.09706,0,4.44671-.00442,8.89352.00751,13.34033.00106.39176-.10573.6216-.50413.69636-.73781.13845-1.46957.30459-2.17554.5631Z" style="fill:#f8fafc; fill-rule:evenodd; stroke-width:0px;"/><path d="m109.68216,60.79815c0-4.56351.00694-9.12712-.01125-13.69063-.00173-.44092.11257-.56618.54366-.53732.57196.03819,1.15026.03694,1.7224.0001.41062-.02646.53088.13353.47671.50451-.00702.04819-.00097.09832-.00097.14758,0,8.81521-.00346,17.63052.01011,26.44574.00077.449-.08765.6747-.56878.75638-.59504.10092-1.18085.27573-1.75713.46074-.37723.12103-.42216-.00472-.42138-.34712.0099-4.57996.00663-9.15992.00663-13.73998Z" style="fill:#f7fafc; fill-rule:evenodd; stroke-width:0px;"/><path d="m120.02005,59.38899c0-4.08815.00693-8.1763-.01039-12.26445-.00173-.43004.09708-.57128.53915-.5428.63766.04108,1.28014.02029,1.92011.00596.25428-.00567.36732.0737.33403.33384-.01038.08071-.00144.16394-.00144.24601,0,7.8972-.00491,15.79449.0128,23.6916.00095.45534-.13277.62419-.56061.70155-.57926.10458-1.15891.23878-1.71508.4286-.48527.16558-.52761-.01317-.52626-.43437.01279-4.05525.00769-8.11059.00769-12.16593Z" style="fill:#fcfcfd; fill-rule:evenodd; stroke-width:0px;"/><path d="m130.3996,57.90653c0-3.61047.00509-7.22096-.00761-10.83133-.00134-.37069.07322-.52722.48008-.505.62169.03406,1.24819.03473,1.86979-.0002.4083-.0228.48239.13412.4819.50528-.01001,6.97477-.00886,13.94943-.0024,20.92419.00029.31374-.05196.54954-.39071.63652-.72905.18741-1.4587.37271-2.18544.56906-.28305.07639-.24543-.10726-.24543-.27024-.00029-.85336-.00019-1.70682-.00019-2.56018v-8.4681Z" style="fill:#f6f9fc; fill-rule:evenodd; stroke-width:0px;"/><path d="m140.81686,56.42493c0-3.10009.01126-6.20019-.01212-9.3-.00357-.46834.13912-.58253.57435-.55367.53896.03569,1.08494.0431,1.62245-.00173.47757-.03993.55848.15008.55704.58081-.01453,4.37937-.00886,8.75873-.00886,13.1382,0,1.59098-.01741,3.18235.01116,4.77286.00808.4466-.14489.6621-.56166.75994-.54116.127-1.07541.28333-1.61368.42293-.56705.14701-.56849.14489-.56859-.4209-.0003-3.13282-.0001-6.26562-.0001-9.39843Z" style="fill:#f8fafc; fill-rule:evenodd; stroke-width:0px;"/><path d="m60.61139,132.68964c-.50952-.65883-.81853-1.2709-1.16046-1.86104q-1.58204-2.73066-1.57945-5.85712c.00068-3.59277.00732-7.18555-.00586-10.77822-.00125-.35712.09438-.51596.45035-.59582.60591-.13594,1.20913-.30064,1.79436-.5074.45439-.16057.5125.00125.51105.40908-.01298,3.52706-.00923,7.05423-.00991,10.58129-.00047,2.81908-.00009,5.63805-.00009,8.60923Z" style="fill:#f8fafc; fill-rule:evenodd; stroke-width:0px;"/><path d="m151.15494,55.04416c0-2.6587.00866-5.31758-.00943-7.97629-.0026-.39512.1141-.5022.4946-.48382.62217.03012,1.24791.02848,1.87028.00029.3524-.01597.43408.1042.43274.44198-.01231,3.11827-.00722,6.23665-.00732,9.35494,0,1.98592-.01212,3.97193.01106,5.95746.00424.36078-.12189.47507-.44005.5454-.65526.14469-1.30794.307-1.95089.49854-.33221.099-.40927.02858-.40773-.31296.01213-2.67515.00674-5.3503.00674-8.02554Z" style="fill:#fcfcfd; fill-rule:evenodd; stroke-width:0px;"/><path d="m151.15417,105.71284v-.53742c.00019-5.59726.00606-11.19461-.0104-16.79177-.00125-.42842.12853-.59659.53492-.68307.60765-.1294,1.20885-.30181,1.79831-.49894.34923-.1167.37887-.00856.34529.29805-.1446,1.32035-.28025,2.64186-.40503,3.96433-.41774,4.42738-1.1341,8.81041-1.94946,13.17871-.06571.35231-.14816.70155-.22281,1.05213-.03031.00606-.06052.01203-.09082.01799Z" style="fill:#f9fafc; fill-rule:evenodd; stroke-width:0px;"/><path d="m114.13551,168.00648c-.02722.12642-.12776.07081-.20174.08111.05013-.06946.09823-.14432.20174-.08111Z" style="fill:#fdfefe; fill-rule:evenodd; stroke-width:0px;"/><path d="m82.98899,19.73848c.02722.4209-.00761.86808-.18559,1.30525-.36232.8903-1.13881,1.20433-1.96677,1.4486-.2637.07783-.41264-.03521-.47334-.31864-.42542-1.98784-.86212-3.97327-1.29476-5.95967-.05387-.24736.00299-.3805.29546-.43284,1.52633-.27351,2.31523-.0684,3.06518,1.31949.43717.80901.60033,1.68353.55983,2.63782Z" style="fill:#d9d7d8; fill-rule:evenodd; stroke-width:0px;"/><path d="m101.14605,184.44845c0-.95072.02578-1.9025-.01088-2.85188-.01847-.47796.19251-.58436.60236-.59255,1.27129-.02558,1.97995.42457,2.37055,1.61591.37483,1.14333.41571,2.3186.05926,3.47184-.41696,1.34883-1.32323,1.90809-2.7169,1.78783-.28189-.02434-.30806-.1598-.30681-.38214.00559-1.01635.00241-2.03268.00241-3.04902Z" style="fill:#d9d7d8; fill-rule:evenodd; stroke-width:0px;"/><path d="m113.3392,184.22679c0,.4414.03367.88598-.0076,1.32343-.06648.70463-.67336,1.41474-1.25964,1.54087-.63613.1368-1.25754-.15298-1.65843-.8729-.80026-1.43695-1.06598-2.96868-.60611-4.57188.31027-1.08148,1.16518-1.57665,2.01786-1.21741.42688.1799.69347.53741.91571.92407.51144.89022.68807,1.85748.59821,2.87382Z" style="fill:#d9d7d8; fill-rule:evenodd; stroke-width:0px;"/><path d="m73.5592,23.30133c.05156.82489-.24619,1.36567-.92446,1.67478-.62534.28497-1.21886.13845-1.78619-.50268-.89338-1.00971-1.31554-2.23462-1.54624-3.54005-.09226-.52173-.13565-1.02846.0989-1.53595.4567-.98835,1.50517-1.04261,2.18651-.5938.4668.30758.76524.7612,1.02009,1.23858.54338,1.01816.88954,2.09848.95139,3.25913Z" style="fill:#d9d7d8; fill-rule:evenodd; stroke-width:0px;"/><path d="m92.94069,17.66501c.02309.62054.02828,1.20904-.19318,1.77272-.21455.54627-.53521.98575-1.16094,1.07387-.65104.09159-1.17229-.1572-1.49295-.72444-.86212-1.52509-1.17499-3.15233-.67316-4.85358.28554-.96813,1.13092-1.39376,1.93464-1.10658.39127.1397.65238.43206.8598.7711.58139.95072.80141,1.99064.72579,3.06691Z" style="fill:#d9d7d8; fill-rule:evenodd; stroke-width:0px;"/><path d="m122.40272,17.27633c-.00231,1.01509-.81208,1.67256-1.79716,1.45946q-.76456-.16538-.56569-.93139c.15277-.58254.31479-1.16257.46487-1.74578.03878-.15018.06436-.25437.26823-.26929.88588-.06446,1.63187.60457,1.62975,1.48699Z" style="fill:#d9d7d8; fill-rule:evenodd; stroke-width:0px;"/><path d="m125.8662,177.38528c.11756.1854.23898.36857.35212.55666.52972.87972,1.05415,1.76272,1.58743,2.64022.14382.23668.21474.38743-.16972.44977-.38175.06197-.756.18954-1.12265.31922-.26688.09438-.34182.01934-.36492-.24783-.10621-1.22877-.22878-2.45609-.34548-3.68399.02107-.01135.04214-.0227.06321-.03406Z" style="fill:#d9d7d8; fill-rule:evenodd; stroke-width:0px;"/><path d="m91.55405,90.65539c-.23609-2.47493,1.69182-4.77363,4.66789-5.30768.75379-.13526,1.50074-.13488,2.24569.03367,1.05039.23773,1.72663.95274,2.29464,1.8087.12007.18097.05677.25188-.10698.32942-.5327.25225-1.06319.50922-1.5906.77216-.16067.08013-.23408.04714-.35115-.10179-.77775-.98873-1.46351-1.1467-2.85381-.75187-1.14862.32615-1.98044,1.09177-2.09156,2.34487-.10929,1.23194.16673,2.41741.84297,3.47627,1.03048,1.61369,2.88479,1.94955,4.54369.83595.12238-.08216.23985-.17232.35443-.26506.78341-.63429.84845-.9563.45189-1.89307-.10102-.2383-.23937-.17664-.39051-.13449-.53587.14931-1.07492.29093-1.60185.46814-.3577.12036-.53386.04003-.6369-.33625-.45708-1.66939-.57214-1.22347.90224-1.70402.93264-.30402,1.89587-.51269,2.83736-.7915.40494-.11987.54858-.02636.65123.40079.26361,1.09754.58773,2.18123.91378,3.26259.10756.35655.05974.63872-.19319.89993-1.65265,1.70672-3.57123,2.82658-6.03971,2.67188-1.45322-.09101-2.55719-.86202-3.45809-1.94156-.99459-1.19173-1.49786-2.56547-1.39145-4.07709Z" style="fill:#0382c3; fill-rule:evenodd; stroke-width:0px;"/><path d="m86.59561,95.85984c.14268,2.21413-.93995,3.83907-3.07209,4.5207-1.38645.44324-2.79734.80949-4.18994,1.23464-.35847.10938-.48576.00289-.57811-.33241-.71309-2.58692-1.43849-5.17038-2.16294-7.75423-.18549-.66181-.37895-1.32132-.57272-1.98082-.09005-.30651-.02598-.43091.33153-.51952,1.33363-.33028,2.64927-.73223,3.97702-1.08734,2.23981-.59899,3.90218.07524,5.11392,2.05451.69616,1.13708,1.05501,2.33967,1.15333,3.86446Zm-2.21459.34232c-.08736-1.08677-.42198-2.3442-1.12207-3.48166-.49575-.80544-1.23877-1.11783-2.18247-1.00257-.77206.09428-1.47381.43803-2.22932.58263-.29979.05735-.1854.24889-.14152.41129.55935,2.06943,1.13034,4.13587,1.67362,6.20953.08688.33182.24582.38252.51953.30479.62929-.17886,1.26388-.34289,1.88413-.54973,1.16084-.38704,1.59829-1.01624,1.59811-2.47426Z" style="fill:#0382c3; fill-rule:evenodd; stroke-width:0px;"/><path d="m133.49286,86.6014c-.75446.20079-1.42165.36473-2.07923.56118-.21762.06494-.29594-.04551-.39715-.17788-.4083-.53396-.82835-1.05925-1.22357-1.60263-.15769-.21676-.31412-.28507-.57705-.21031-1.18037.33596-2.36363.6621-3.54978.97719-.24918.06618-.33114.19501-.34634.4413-.04127.67046-.11641,1.33892-.15826,2.00938-.01164.18655-.04676.30123-.24466.35231-.66095.17058-1.31882.35337-2.03162.54608.08428-.89348.16076-1.73886.24427-2.58356.28352-2.87016.57744-5.73946.8447-8.61116.03377-.36241.11786-.55407.50432-.61814.38435-.06378.77207-.17461,1.12678-.3346.50009-.22561.78977-.05802,1.09821.35183,1.50805,2.00409,3.04353,3.98751,4.56736,5.97978.72589.94899,1.44744,1.90125,2.22201,2.91922Zm-5.12815-3.13733c-.84778-1.16526-1.6617-2.28387-2.54969-3.50436-.09833,1.52326-.18655,2.88931-.27766,4.30192.96189-.2713,1.86806-.52693,2.82735-.79756Z" style="fill:#0382c3; fill-rule:evenodd; stroke-width:0px;"/><path d="m67.194,104.95848c-2.21296-.03656-3.61576-1.26937-4.48289-3.17744-.65681-1.44533-.91647-2.97926-.50432-4.55649.67393-2.57923,3.29357-4.08036,5.98873-3.55055,1.04039.20454,1.81813.86904,2.425,1.73405.15817.22532.15912.36174-.11006.47979-.19424.08515-.37165.20801-.55954.30854-.31777.17009-.62266.42042-.96111.48161-.40686.0735-.49865-.42726-.76985-.6341-.7306-.55723-1.53028-.59225-2.33169-.30046-.8446.30758-1.49651.90397-1.60147,1.83477-.17635,1.56415.15325,3.03554,1.08031,4.3407.6645.93571,1.58838,1.22694,2.68044,1.03029.99835-.17981,1.68248-1.04328,1.72962-2.28098.02059-.53944.21002-.6649.69164-.61871.37415.03579.75706.03416,1.1315-.00029.38829-.03569.45669.1218.45545.47603-.00761,2.06356-1.5756,3.92277-3.67619,4.33049-.38896.07552-.77957.10737-1.18557.10275Z" style="fill:#0382c3; fill-rule:evenodd; stroke-width:0px;"/><path d="m111.90532,92.45871c-1.42551-.02116-2.89315-.827-3.80644-2.52958-1.06973-1.99449-1.52393-4.0742-.45343-6.20664,1.10928-2.20951,3.76903-2.97724,5.80497-2.49688.99007.2335,1.67267.9314,2.25299,1.73308.10746.14855.12458.24899-.06446.34395-.21926.11015-.42649.24407-.6393.36712-.32634.18867-.63516.47604-.9841.53838-.38512.06888-.47248-.44005-.74081-.65047-1.09378-.85788-2.82484-.53366-3.57228.65133-.46565.73819-.48854,1.52239-.37242,2.32023.12055.82768.38964,1.62552.75129,2.3821.39368.82363.98373,1.44504,1.93762,1.5678,1.63909.21079,2.75047-.72367,2.8463-2.4076.02155-.38002.11362-.51087.49951-.48325.47343.03377.95149.01982,1.42685.00347.27005-.00924.37031.05744.35414.35626-.14315,2.65417-2.08549,4.50617-5.24043,4.51069Z" style="fill:#0382c3; fill-rule:evenodd; stroke-width:0px;"/><path d="m135.06644,75.04292c-.03801-.40013.24023-.35549.39724-.40022,1.68518-.47911,3.37458-.9434,5.06293-1.41136.83624-.23177,1.67507-.45477,2.50765-.69866.26419-.07735.41157-.08476.47181.25062.0862.48065.44928,1.04299.29603,1.39905-.16038.37232-.86327.31171-1.32517.45285-.39138.11949-.78284.24879-1.18345.32527-.41235.0787-.52953.23676-.40263.66585.5986,2.02556,1.16882,4.05948,1.74347,6.09206.16038.56714.29912,1.14045.4517,1.7098.07899.29487.04407.48873-.31701.5632-.44736.09236-.8904.22281-1.31987.37915-.31922.11612-.41812.00674-.49778-.28776-.3933-1.45427-.78236-2.91038-1.21741-4.35243-.36425-1.2075-.69097-2.42405-.99902-3.64598-.07552-.29978-.18837-.39859-.49874-.29978-.73292.2333-1.48083.42052-2.20922.66624-.38849.13103-.60139.11217-.67557-.35241-.06148-.38522-.20194-.75793-.28497-1.0555Z" style="fill:#0382c3; fill-rule:evenodd; stroke-width:0px;"/><path d="m136.53639,85.43527c-.00684.21358-.07754.35433-.29189.41148-.4261.11381-.85096.23253-1.27514.35337-.23196.06609-.37905-.02251-.46651-.23609-.01857-.04532-.04542-.08842-.05725-.13536-.13104-.5201-.5757-1.19615-.31834-1.52258.35856-.45497,1.15862-.40166,1.75945-.59966.11169-.03685.18212-.00087.21464.12248.1419.53626.28958,1.07107.43505,1.60637Z" style="fill:#0382c3; fill-rule:evenodd; stroke-width:0px;"/><path d="m91.51153,98.0856c.06484.1827-.09102.18549-.1879.21108-.53674.14172-1.07801.2664-1.61311.41379-.23609.06494-.24542-.1166-.28083-.23888-.13633-.47055-.24696-.94861-.38367-1.41906-.05927-.20424.00606-.31095.1952-.36838.51549-.15624,1.03038-.3145,1.54673-.46804.11507-.03416.23292-.0434.27314.11275.15105.58533.30084,1.17094.45045,1.75675Z" style="fill:#0382c3; fill-rule:evenodd; stroke-width:0px;"/><path d="m106.28402,91.91957c.25591-.02319.3778.12593.41629.33865.0761.42042.17077.83344.33114,1.23116.10207.25293-.00616.4085-.25717.48017-.47238.13479-.94629.26448-1.41636.40686-.23022.06985-.3272-.01962-.37915-.23686-.11824-.49364-.2514-.98362-.37762-1.47534-.03396-.13228-.06273-.26245.1219-.31306.52067-.14267,1.04067-.28756,1.56097-.43158Z" style="fill:#0382c3; fill-rule:evenodd; stroke-width:0px;"/><path d="m120.03775,90.30683c-.16461.00847-.24841-.05647-.28737-.21329-.12584-.50643-.25543-1.01201-.39205-1.51556-.05465-.20165.01366-.30276.21098-.35365.48941-.12633.97727-.25861,1.46351-.39647.19934-.05648.30343.00654.35432.20588.12517.4897.25842.97747.39186,1.46505.04329.15836.04406.30104-.142.35529-.53174.15538-1.06598.30248-1.59926.45275Z" style="fill:#0382c3; fill-rule:evenodd; stroke-width:0px;"/><path d="m76.75569,102.12979c.04916.18068-.10708.17721-.20204.20608-.51616.15662-1.03644.2992-1.55222.45689-.18761.05734-.25514.00347-.29727-.18712-.11285-.51048-.24601-1.01672-.3807-1.5221-.05368-.20156.01039-.30344.20886-.35626.48951-.13017.97525-.274,1.46428-.40581.11622-.03126.25437-.1092.30806.1017.14508.57021.29997,1.13794.45102,1.70662Z" style="fill:#0382c3; fill-rule:evenodd; stroke-width:0px;"/><path d="m84.38101,96.20215c.00019,1.45803-.43727,2.08722-1.59811,2.47426-.62025.20685-1.25484.37088-1.88413.54973-.27371.07773-.43265.02703-.51953-.30479-.54328-2.07366-1.11427-4.1401-1.67362-6.20953-.04388-.16239-.15827-.35394.14152-.41129.75551-.14459,1.45726-.48835,2.22932-.58263.9437-.11525,1.68671.19713,2.18247,1.00257.7001,1.13746,1.03471,2.3949,1.12207,3.48166Z" style="fill:#fbfbfd; fill-rule:evenodd; stroke-width:0px;"/><path d="m128.36471,83.46407c-.95929.27063-1.86546.52626-2.82735.79756.09111-1.41261.17933-2.77866.27766-4.30192.88799,1.22049,1.7019,2.3391,2.54969,3.50436Z" style="fill:#f6f9fc; fill-rule:evenodd; stroke-width:0px;"/></svg>